<svg width="12" height="21" viewBox="0 0 12 21" fill="none" xmlns="http://www.w3.org/2000/svg">
<path d="M1.16043 2.32087C1.80132 2.32087 2.32086 1.80134 2.32086 1.16044C2.32086 0.519549 1.80132 0 1.16043 0C0.519538 0 0 0.519549 0 1.16044C0 1.80134 0.519538 2.32087 1.16043 2.32087Z" fill="white"/>
<path d="M4.17313 2.32087C4.81401 2.32087 5.33355 1.80134 5.33355 1.16044C5.33355 0.519549 4.81401 0 4.17313 0C3.53224 0 3.0127 0.519549 3.0127 1.16044C3.0127 1.80134 3.53224 2.32087 4.17313 2.32087Z" fill="white"/>
<path d="M1.16043 5.33306C1.80132 5.33306 2.32086 4.81352 2.32086 4.17263C2.32086 3.53174 1.80132 3.01221 1.16043 3.01221C0.519538 3.01221 0 3.53174 0 4.17263C0 4.81352 0.519538 5.33306 1.16043 5.33306Z" fill="white"/>
<path d="M4.17313 5.33306C4.81401 5.33306 5.33355 4.81352 5.33355 4.17263C5.33355 3.53174 4.81401 3.01221 4.17313 3.01221C3.53224 3.01221 3.0127 3.53174 3.0127 4.17263C3.0127 4.81352 3.53224 5.33306 4.17313 5.33306Z" fill="white"/>
<path d="M7.15995 5.33306C7.80084 5.33306 8.32037 4.81352 8.32037 4.17263C8.32037 3.53174 7.80084 3.01221 7.15995 3.01221C6.51906 3.01221 5.99951 3.53174 5.99951 4.17263C5.99951 4.81352 6.51906 5.33306 7.15995 5.33306Z" fill="white"/>
<path d="M1.16043 8.34528C1.80132 8.34528 2.32086 7.82574 2.32086 7.18485C2.32086 6.54396 1.80132 6.02441 1.16043 6.02441C0.519538 6.02441 0 6.54396 0 7.18485C0 7.82574 0.519538 8.34528 1.16043 8.34528Z" fill="white"/>
<path d="M4.17313 8.34528C4.81401 8.34528 5.33355 7.82574 5.33355 7.18485C5.33355 6.54396 4.81401 6.02441 4.17313 6.02441C3.53224 6.02441 3.0127 6.54396 3.0127 7.18485C3.0127 7.82574 3.53224 8.34528 4.17313 8.34528Z" fill="white"/>
<path d="M7.15995 8.34528C7.80084 8.34528 8.32037 7.82574 8.32037 7.18485C8.32037 6.54396 7.80084 6.02441 7.15995 6.02441C6.51906 6.02441 5.99951 6.54396 5.99951 7.18485C5.99951 7.82574 6.51906 8.34528 7.15995 8.34528Z" fill="white"/>
<path d="M10.1726 8.34528C10.8135 8.34528 11.3331 7.82574 11.3331 7.18485C11.3331 6.54396 10.8135 6.02441 10.1726 6.02441C9.53175 6.02441 9.01221 6.54396 9.01221 7.18485C9.01221 7.82574 9.53175 8.34528 10.1726 8.34528Z" fill="white"/>
<path d="M1.16043 14.3697C1.80132 14.3697 2.32086 13.8501 2.32086 13.2093C2.32086 12.5684 1.80132 12.0488 1.16043 12.0488C0.519538 12.0488 0 12.5684 0 13.2093C0 13.8501 0.519538 14.3697 1.16043 14.3697Z" fill="white"/>
<path d="M4.17313 14.3697C4.81401 14.3697 5.33355 13.8501 5.33355 13.2093C5.33355 12.5684 4.81401 12.0488 4.17313 12.0488C3.53224 12.0488 3.0127 12.5684 3.0127 13.2093C3.0127 13.8501 3.53224 14.3697 4.17313 14.3697Z" fill="white"/>
<path d="M7.15995 14.3697C7.80084 14.3697 8.32037 13.8501 8.32037 13.2093C8.32037 12.5684 7.80084 12.0488 7.15995 12.0488C6.51906 12.0488 5.99951 12.5684 5.99951 13.2093C5.99951 13.8501 6.51906 14.3697 7.15995 14.3697Z" fill="white"/>
<path d="M10.1726 14.3697C10.8135 14.3697 11.3331 13.8501 11.3331 13.2093C11.3331 12.5684 10.8135 12.0488 10.1726 12.0488C9.53175 12.0488 9.01221 12.5684 9.01221 13.2093C9.01221 13.8501 9.53175 14.3697 10.1726 14.3697Z" fill="white"/>
<path d="M1.16043 17.357C1.80132 17.357 2.32086 16.8374 2.32086 16.1966C2.32086 15.5557 1.80132 15.0361 1.16043 15.0361C0.519538 15.0361 0 15.5557 0 16.1966C0 16.8374 0.519538 17.357 1.16043 17.357Z" fill="white"/>
<path d="M4.17313 17.357C4.81401 17.357 5.33355 16.8374 5.33355 16.1966C5.33355 15.5557 4.81401 15.0361 4.17313 15.0361C3.53224 15.0361 3.0127 15.5557 3.0127 16.1966C3.0127 16.8374 3.53224 17.357 4.17313 17.357Z" fill="white"/>
<path d="M7.15995 17.357C7.80084 17.357 8.32037 16.8374 8.32037 16.1966C8.32037 15.5557 7.80084 15.0361 7.15995 15.0361C6.51906 15.0361 5.99951 15.5557 5.99951 16.1966C5.99951 16.8374 6.51906 17.357 7.15995 17.357Z" fill="white"/>
<path d="M1.16043 20.3692C1.80132 20.3692 2.32086 19.8497 2.32086 19.2088C2.32086 18.5679 1.80132 18.0483 1.16043 18.0483C0.519538 18.0483 0 18.5679 0 19.2088C0 19.8497 0.519538 20.3692 1.16043 20.3692Z" fill="white"/>
<path d="M4.17313 20.3692C4.81401 20.3692 5.33355 19.8497 5.33355 19.2088C5.33355 18.5679 4.81401 18.0483 4.17313 18.0483C3.53224 18.0483 3.0127 18.5679 3.0127 19.2088C3.0127 19.8497 3.53224 20.3692 4.17313 20.3692Z" fill="white"/>
</svg>
