<svg width="21" height="20" viewBox="0 0 21 20" fill="none" xmlns="http://www.w3.org/2000/svg">
<path fill-rule="evenodd" clip-rule="evenodd" d="M10.2604 16C12.2485 16 14.0816 15.1828 15.31 13.818C14.6908 12.8878 12.4235 12 10.2604 12C8.09731 12 5.82998 12.8878 5.21077 13.818C6.43926 15.1828 8.27235 16 10.2604 16ZM10.2604 5C11.9369 5 13.2902 6.34 13.2902 8C13.2902 9.66 11.9369 11 10.2604 11C8.58393 11 7.23063 9.66 7.23063 8C7.23063 6.34 8.58393 5 10.2604 5ZM10.2604 2C5.80114 2 2.18099 5.58457 2.18099 10C2.18099 14.4154 5.80114 18 10.2604 18C14.7197 18 18.3398 14.4154 18.3398 10C18.3398 5.58457 14.7197 2 10.2604 2ZM10.2604 0C15.8352 0 20.3597 4.48 20.3597 10C20.3597 15.52 15.8352 20 10.2604 20C4.68561 20 0.161133 15.52 0.161133 10C0.161133 4.48 4.68561 0 10.2604 0Z" fill="#F2F2F2"/>
</svg>
