<svg width="71" height="74" viewBox="0 0 71 74" fill="none" xmlns="http://www.w3.org/2000/svg">
<g opacity="0.5">
<path d="M68.4947 25.2708C69.3315 25.2708 70.0846 25.9402 70.0846 26.777C70.0846 27.6137 69.4152 28.3668 68.5784 28.3668C67.7416 28.3668 66.9885 27.6974 66.9885 26.8606C66.9885 26.0239 67.658 25.2708 68.4947 25.2708ZM68.7458 34.0569C69.5826 34.0569 70.3356 34.7263 70.3356 35.5631C70.3356 36.3999 69.6662 37.153 68.8294 37.153C67.9927 37.153 67.2396 36.4836 67.2396 35.6468C67.2396 34.81 67.909 34.0569 68.7458 34.0569ZM69.0805 42.8431C69.9173 42.8431 70.6703 43.5125 70.6703 44.3493C70.6703 45.1861 70.0009 45.9391 69.1642 45.9391C68.3274 45.9391 67.5743 45.2697 67.5743 44.433C67.5743 43.5962 68.2437 42.8431 69.0805 42.8431ZM2.22201 48.0311C1.38523 48.0311 0.632128 47.3617 0.632128 46.5249C0.632128 45.6881 1.30155 44.935 2.13833 44.935C2.97511 44.935 3.72821 45.6044 3.72821 46.4412C3.72821 47.278 3.05878 48.0311 2.22201 48.0311ZM1.88729 39.2449C1.05052 39.2449 0.297422 38.5755 0.297422 37.7387C0.297422 36.902 0.96684 36.1489 1.80362 36.1489C2.64039 36.1489 3.39349 36.8183 3.39349 37.6551C3.39349 38.4918 2.72407 39.2449 1.88729 39.2449ZM1.63626 30.4588C0.799487 30.4588 0.0463867 29.7894 0.0463867 28.9526C0.0463867 28.1158 0.715811 27.3627 1.55259 27.3627C2.38936 27.3627 3.14246 28.0321 3.14246 28.8689C3.14246 29.7057 2.47304 30.4588 1.63626 30.4588ZM12.0123 56.4825C11.1755 56.4825 10.4224 55.8131 10.4224 54.9763C10.4224 54.1396 11.0918 53.3865 11.9286 53.3865C12.7654 53.3865 13.5185 54.0559 13.5185 54.8927C13.5185 55.8131 12.9328 56.4825 12.0123 56.4825ZM11.7613 47.6964C10.9245 47.6964 10.1714 47.027 10.1714 46.1902C10.1714 45.3534 10.8408 44.6003 11.6776 44.6003C12.5144 44.6003 13.2675 45.2697 13.2675 46.1065C13.2675 47.027 12.598 47.6964 11.7613 47.6964ZM11.5102 38.9102C10.6735 38.9102 9.92036 38.2408 9.92036 37.404C9.92036 36.5673 10.5898 35.8141 11.4266 35.8141C12.2633 35.8141 13.0164 36.4836 13.0164 37.3204C13.0164 38.2408 12.347 38.9102 11.5102 38.9102ZM11.1755 30.1241C10.3387 30.1241 9.58564 29.4546 9.58564 28.6179C9.58564 27.7811 10.2551 27.028 11.0918 27.028C11.9286 27.028 12.6817 27.6974 12.6817 28.5342C12.6817 29.4546 12.0123 30.1241 11.1755 30.1241ZM10.9245 21.3379C10.0877 21.3379 9.33461 20.6685 9.33461 19.8317C9.33461 18.9949 10.004 18.2418 10.8408 18.2418C11.6776 18.2418 12.4307 18.9113 12.4307 19.748C12.4307 20.6685 11.7613 21.3379 10.9245 21.3379ZM21.8863 65.0177C21.0495 65.0177 20.2964 64.3482 20.2964 63.5115C20.2964 62.6747 20.9658 61.9216 21.8026 61.9216C22.6394 61.9216 23.3925 62.591 23.3925 63.4278C23.3925 64.2646 22.723 64.934 21.8863 65.0177ZM21.6352 56.2315C20.7985 56.2315 20.0454 55.5621 20.0454 54.7253C20.0454 53.8885 20.7148 53.1354 21.5515 53.1354C22.3883 53.1354 23.1414 53.8048 23.1414 54.6416C23.1414 55.4784 22.472 56.1478 21.6352 56.2315ZM21.3005 47.4454C20.4637 47.4454 19.7106 46.7759 19.7106 45.9391C19.7106 45.1024 20.3801 44.3493 21.2168 44.3493C22.0536 44.3493 22.8067 45.0187 22.8067 45.8555C22.8067 46.6922 22.1373 47.3617 21.3005 47.4454ZM21.0495 38.6592C20.2127 38.6592 19.4596 37.9898 19.4596 37.153C19.4596 36.3162 20.129 35.5631 20.9658 35.5631C21.8026 35.5631 22.5557 36.2325 22.5557 37.0693C22.5557 37.9061 21.8863 38.5755 21.0495 38.6592ZM20.7985 29.873C19.9617 29.873 19.2086 29.2036 19.2086 28.3668C19.2086 27.5301 19.878 26.777 20.7148 26.777C21.5515 26.777 22.3046 27.4464 22.3046 28.2832C22.3046 29.1199 21.6352 29.7894 20.7985 29.873ZM20.4637 21.0869C19.627 21.0869 18.8739 20.4174 18.8739 19.5807C18.8739 18.7439 19.5433 17.9908 20.3801 17.9908C21.2168 17.9908 21.9699 18.6602 21.9699 19.497C21.9699 20.3338 21.3005 21.0032 20.4637 21.0869ZM20.2127 12.3007C19.3759 12.3007 18.6228 11.6313 18.6228 10.7945C18.6228 9.95773 19.2923 9.20464 20.129 9.20464C20.9658 9.20464 21.7189 9.87406 21.7189 10.7108C21.7189 11.5476 21.0495 12.217 20.2127 12.3007ZM31.4255 64.6829C30.5887 64.6829 29.8356 64.0135 29.8356 63.1768C29.8356 62.34 30.5051 61.5869 31.3418 61.5869C32.1786 61.5869 32.9317 62.2563 32.9317 63.0931C32.9317 63.9298 32.2623 64.6829 31.4255 64.6829ZM31.1745 55.8968C30.3377 55.8968 29.5846 55.2274 29.5846 54.3906C29.5846 53.5538 30.254 52.8007 31.0908 52.8007C31.9276 52.8007 32.6807 53.4701 32.6807 54.3069C32.6807 55.1437 32.0113 55.8968 31.1745 55.8968ZM30.9235 47.1106C30.0867 47.1106 29.3336 46.4412 29.3336 45.6044C29.3336 44.7677 30.003 44.0146 30.8398 44.0146C31.6766 44.0146 32.4296 44.684 32.4296 45.5208C32.4296 46.3575 31.7602 47.1106 30.9235 47.1106ZM30.5887 38.3245C29.752 38.3245 28.9989 37.6551 28.9989 36.8183C28.9989 35.9815 29.6683 35.2284 30.5051 35.2284C31.3418 35.2284 32.0949 35.8978 32.0949 36.7346C32.0949 37.5714 31.4255 38.3245 30.5887 38.3245ZM30.3377 29.5383C29.5009 29.5383 28.7478 28.8689 28.7478 28.0321C28.7478 27.1953 29.4173 26.4422 30.254 26.4422C31.0908 26.4422 31.8439 27.1117 31.8439 27.9484C31.8439 28.7852 31.1745 29.5383 30.3377 29.5383ZM30.0867 20.7522C29.2499 20.7522 28.4968 20.0827 28.4968 19.246C28.4968 18.4092 29.1662 17.6561 30.003 17.6561C30.8398 17.6561 31.5929 18.3255 31.5929 19.1623C31.5929 19.9991 30.9235 20.7522 30.0867 20.7522ZM29.752 11.966C28.9152 11.966 28.1621 11.2966 28.1621 10.4598C28.1621 9.62303 28.8315 8.86993 29.6683 8.86993C30.5051 8.86993 31.2582 9.53935 31.2582 10.3761C31.2582 11.2129 30.5887 11.966 29.752 11.966ZM41.0485 64.3482C40.2117 64.3482 39.4586 63.6788 39.4586 62.842C39.4586 62.0053 40.128 61.2522 40.9648 61.2522C41.8016 61.2522 42.5547 61.9216 42.5547 62.7584C42.5547 63.6788 41.8852 64.3482 41.0485 64.3482ZM40.7137 55.5621C39.877 55.5621 39.1239 54.8927 39.1239 54.0559C39.1239 53.2191 39.7933 52.466 40.6301 52.466C41.4668 52.466 42.2199 53.1354 42.2199 53.9722C42.2199 54.8927 41.5505 55.5621 40.7137 55.5621ZM40.4627 46.7759C39.6259 46.7759 38.8728 46.1065 38.8728 45.2697C38.8728 44.433 39.5423 43.6799 40.379 43.6799C41.2158 43.6799 41.9689 44.3493 41.9689 45.1861C41.9689 46.1065 41.2995 46.7759 40.4627 46.7759ZM40.2117 37.9898C39.3749 37.9898 38.6218 37.3204 38.6218 36.4836C38.6218 35.6468 39.2912 34.8937 40.128 34.8937C40.9648 34.8937 41.7179 35.5631 41.7179 36.3999C41.7179 37.3203 41.0485 37.9898 40.2117 37.9898ZM39.877 29.2036C39.0402 29.2036 38.2871 28.5342 38.2871 27.6974C38.2871 26.8606 38.9565 26.1075 39.7933 26.1075C40.6301 26.1075 41.3832 26.777 41.3832 27.6137C41.3832 28.5342 40.7137 29.2036 39.877 29.2036ZM39.6259 20.4174C38.7892 20.4174 38.0361 19.748 38.0361 18.9113C38.0361 18.0745 38.7055 17.3214 39.5423 17.3214C40.379 17.3214 41.1321 17.9908 41.1321 18.8276C41.1321 19.748 40.4627 20.4174 39.6259 20.4174ZM39.2912 11.6313C38.4544 11.6313 37.7013 10.9619 37.7013 10.1251C37.7013 9.28832 38.3708 8.53522 39.2075 8.53522C40.0443 8.53522 40.7974 9.20464 40.7974 10.0414C40.7974 10.9619 40.2117 11.6313 39.2912 11.6313ZM50.5877 64.0972C49.7509 64.0972 48.9978 63.4278 48.9978 62.591C48.9978 61.7542 49.6673 61.0011 50.504 61.0011C51.3408 61.0011 52.0939 61.6706 52.0939 62.5073C52.0939 63.3441 51.4245 64.0135 50.5877 64.0972ZM50.3367 55.3111C49.4999 55.3111 48.7468 54.6416 48.7468 53.8048C48.7468 52.9681 49.4162 52.215 50.253 52.215C51.0898 52.215 51.8429 52.8844 51.8429 53.7212C51.8429 54.558 51.1735 55.2274 50.3367 55.3111ZM50.002 46.5249C49.1652 46.5249 48.4121 45.8555 48.4121 45.0187C48.4121 44.1819 49.0815 43.4288 49.9183 43.4288C50.7551 43.4288 51.5082 44.0982 51.5082 44.935C51.5082 45.7718 50.8387 46.4412 50.002 46.5249ZM49.7509 37.7387C48.9142 37.7387 48.1611 37.0693 48.1611 36.2325C48.1611 35.3957 48.8305 34.6427 49.6673 34.6427C50.504 34.6427 51.2571 35.3121 51.2571 36.1489C51.2571 36.9856 50.5877 37.6551 49.7509 37.7387ZM49.4162 28.9526C48.5794 28.9526 47.8264 28.2832 47.8264 27.4464C47.8264 26.6096 48.4958 25.8565 49.3325 25.8565C50.1693 25.8565 50.9224 26.5259 50.9224 27.3627C51.0061 28.1995 50.3367 28.8689 49.4162 28.9526ZM49.1652 20.1664C48.3284 20.1664 47.5753 19.497 47.5753 18.6602C47.5753 17.8234 48.2447 17.0703 49.0815 17.0703C49.9183 17.0703 50.6714 17.7398 50.6714 18.5765C50.6714 19.4133 50.002 20.0827 49.1652 20.1664ZM48.9142 11.3803C48.0774 11.3803 47.3243 10.7108 47.3243 9.87406C47.3243 9.03729 47.9937 8.28418 48.8305 8.28418C49.6673 8.28418 50.4203 8.9536 50.4203 9.79038C50.4203 10.6272 49.7509 11.2966 48.9142 11.3803ZM59.8759 54.9763C59.0392 54.9763 58.2861 54.3069 58.2861 53.4701C58.2861 52.6334 58.9555 51.8803 59.7922 51.8803C60.629 51.8803 61.3821 52.5497 61.3821 53.3865C61.3821 54.2232 60.7127 54.9763 59.8759 54.9763ZM59.5412 46.1902C58.7044 46.1902 57.9513 45.5208 57.9513 44.684C57.9513 43.8472 58.6208 43.0941 59.4575 43.0941C60.2943 43.0941 61.0474 43.7635 61.0474 44.6003C61.1311 45.4371 60.4617 46.1902 59.5412 46.1902ZM59.2902 37.404C58.4534 37.404 57.7003 36.7346 57.7003 35.8978C57.7003 35.061 58.3697 34.3079 59.2065 34.3079C60.0433 34.3079 60.7964 34.9774 60.7964 35.8141C60.7964 36.6509 60.127 37.404 59.2902 37.404ZM59.0392 28.6179C58.2024 28.6179 57.4493 27.9484 57.4493 27.1117C57.4493 26.2749 58.1187 25.5218 58.9555 25.5218C59.7922 25.5218 60.5454 26.1912 60.5454 27.028C60.5454 27.8648 59.8759 28.6179 59.0392 28.6179ZM58.7044 19.8317C57.8677 19.8317 57.1146 19.1623 57.1146 18.3255C57.1146 17.4887 57.784 16.7356 58.6208 16.7356C59.4575 16.7356 60.2106 17.4051 60.2106 18.2418C60.2106 19.0786 59.6249 19.8317 58.7044 19.8317Z" fill="white"/>
<path d="M20.1294 3.43005C20.38 3.34653 20.6305 3.263 20.7976 3.09595C20.6305 3.263 20.38 3.34653 20.1294 3.43005Z" fill="white"/>
<path d="M29.4994 3.17977C30.3362 3.17977 31.0056 2.42666 31.0056 1.58988C31.0056 1.08782 30.6709 0.58575 30.3362 0.334717C29.6667 0.418394 28.9973 0.585758 28.3279 0.669435C28.1605 0.920468 27.9932 1.25518 27.9932 1.67356C27.9095 2.51034 28.6626 3.17977 29.4994 3.17977Z" fill="white"/>
<path d="M37.4517 1.42252C37.4517 2.25929 38.2048 2.92872 39.0415 2.92872C39.8783 2.92872 40.5477 2.17562 40.5477 1.33885C40.5477 0.836782 40.2967 0.502064 39.962 0.167353C39.3762 0.0836751 38.8742 0.0836777 38.2884 0C37.7864 0.251033 37.4517 0.836774 37.4517 1.42252Z" fill="white"/>
<path d="M48.5793 2.59404C48.8303 2.59404 48.9976 2.51036 49.165 2.42668C48.4956 2.17565 47.8262 1.92462 47.1567 1.67358C47.4078 2.25933 47.9935 2.59404 48.5793 2.59404Z" fill="white"/>
<path d="M10.6727 12.5517C11.5095 12.5517 12.1789 11.7986 12.1789 10.9618C12.1789 10.2924 11.6768 9.79034 11.0911 9.53931C10.4217 10.1251 9.75225 10.7945 9.1665 11.4639C9.33386 12.1333 9.9196 12.6354 10.6727 12.5517Z" fill="white"/>
<path d="M20.1767 12.2197C21.0081 12.193 21.6605 11.4974 21.6339 10.666C21.6072 9.83454 20.9116 9.18214 20.0802 9.2088C19.2487 9.23547 18.5963 9.93109 18.623 10.7625C18.6496 11.594 19.3453 12.2464 20.1767 12.2197Z" fill="white"/>
<path d="M29.8011 11.9666C30.6326 11.9399 31.285 11.2443 31.2584 10.4129C31.2317 9.58145 30.5361 8.92903 29.7047 8.95567C28.8732 8.98231 28.2208 9.67792 28.2475 10.5094C28.2741 11.3408 28.9697 11.9932 29.8011 11.9666Z" fill="white"/>
<path d="M39.3393 11.6328C40.1707 11.6061 40.8231 10.9105 40.7965 10.0791C40.7698 9.24763 40.0742 8.59523 39.2428 8.62189C38.4113 8.64855 37.7589 9.34418 37.7856 10.1756C37.8122 11.007 38.5079 11.6594 39.3393 11.6328Z" fill="white"/>
<path d="M48.8778 11.2986C49.7092 11.272 50.3617 10.5763 50.335 9.74491C50.3084 8.91348 49.6128 8.26106 48.7813 8.2877C47.9499 8.31434 47.2975 9.00995 47.3241 9.84139C47.3508 10.6728 48.0464 11.3252 48.8778 11.2986Z" fill="white"/>
<path d="M56.8628 9.53915C56.8628 10.3759 57.6159 11.0453 58.4527 11.0453C59.2895 11.0453 59.9589 10.2923 59.9589 9.45548C59.9589 9.20444 59.8752 8.86973 59.7078 8.70237C59.4568 8.53501 59.2058 8.28398 58.9547 8.11663C58.7874 8.03295 58.5363 8.03296 58.369 8.03296C57.5322 8.03296 56.8628 8.70237 56.8628 9.53915Z" fill="white"/>
<path d="M10.8891 21.3408C11.7205 21.3141 12.3729 20.6185 12.3463 19.7871C12.3196 18.9556 11.624 18.3032 10.7926 18.3299C9.96112 18.3566 9.30872 19.0522 9.33539 19.8836C9.36205 20.7151 10.0577 21.3675 10.8891 21.3408Z" fill="white"/>
<path d="M20.5117 21.0041C21.3431 20.9775 21.9955 20.2818 21.9688 19.4504C21.9422 18.619 21.2466 17.9666 20.4151 17.9932C19.5837 18.0199 18.9313 18.7155 18.9579 19.547C18.9846 20.3784 19.6802 21.0308 20.5117 21.0041Z" fill="white"/>
<path d="M30.0527 20.7539C30.8841 20.7272 31.5365 20.0316 31.5099 19.2002C31.4832 18.3687 30.7876 17.7163 29.9561 17.743C29.1247 17.7696 28.4723 18.4653 28.499 19.2967C28.5256 20.1281 29.2213 20.7805 30.0527 20.7539Z" fill="white"/>
<path d="M39.5913 20.4199C40.4227 20.3932 41.0751 19.6976 41.0484 18.8662C41.0218 18.0347 40.3261 17.3823 39.4947 17.409C38.6633 17.4357 38.0109 18.1313 38.0375 18.9627C38.0642 19.7942 38.7598 20.4465 39.5913 20.4199Z" fill="white"/>
<path d="M49.2148 20.0835C50.0462 20.0568 50.6986 19.3612 50.672 18.5297C50.6453 17.6983 49.9497 17.0459 49.1182 17.0726C48.2868 17.0992 47.6344 17.7949 47.6611 18.6263C47.6877 19.4577 48.3834 20.1101 49.2148 20.0835Z" fill="white"/>
<path d="M58.7538 19.833C59.5852 19.8064 60.2376 19.1108 60.211 18.2793C60.1843 17.4479 59.4887 16.7955 58.6573 16.8221C57.8259 16.8488 57.1735 17.5444 57.2001 18.3758C57.2267 19.2072 57.9223 19.8596 58.7538 19.833Z" fill="white"/>
<path d="M68.3267 19.497C67.992 18.6602 67.4899 17.9071 66.9879 17.0703C66.8205 17.3213 66.7368 17.6561 66.7368 17.9908C66.7368 18.9112 67.4899 19.5807 68.3267 19.497Z" fill="white"/>
<path d="M1.602 30.4619C2.43344 30.4352 3.08583 29.7396 3.05917 28.9082C3.0325 28.0767 2.33688 27.4243 1.50545 27.451C0.674013 27.4777 0.0216144 28.1733 0.048277 29.0047C0.0749395 29.8361 0.770567 30.4885 1.602 30.4619Z" fill="white"/>
<path d="M11.2246 30.1252C12.056 30.0986 12.7084 29.4029 12.6817 28.5715C12.6551 27.7401 11.9594 27.0877 11.128 27.1143C10.2966 27.141 9.64417 27.8366 9.67084 28.668C9.6975 29.4995 10.3931 30.1519 11.2246 30.1252Z" fill="white"/>
<path d="M20.7631 29.7915C21.5946 29.7648 22.247 29.0692 22.2203 28.2378C22.1936 27.4063 21.498 26.7539 20.6666 26.7806C19.8351 26.8072 19.1827 27.5029 19.2094 28.3343C19.2361 29.1657 19.9317 29.8181 20.7631 29.7915Z" fill="white"/>
<path d="M30.3046 29.541C31.1361 29.5143 31.7885 28.8187 31.7618 27.9873C31.7351 27.1558 31.0395 26.5034 30.2081 26.5301C29.3766 26.5568 28.7243 27.2524 28.7509 28.0838C28.7776 28.9153 29.4732 29.5677 30.3046 29.541Z" fill="white"/>
<path d="M39.9257 29.2045C40.7572 29.1779 41.4096 28.4823 41.3829 27.6508C41.3562 26.8194 40.6606 26.167 39.8292 26.1937C38.9977 26.2203 38.3453 26.916 38.372 27.7474C38.3987 28.5788 39.0943 29.2312 39.9257 29.2045Z" fill="white"/>
<path d="M49.4643 28.8706C50.2957 28.8439 50.9481 28.1483 50.9215 27.3169C50.8948 26.4854 50.1992 25.833 49.3678 25.8597C48.5363 25.8863 47.8839 26.582 47.9106 27.4134C47.9372 28.2448 48.6329 28.8972 49.4643 28.8706Z" fill="white"/>
<path d="M59.0058 28.6203C59.8372 28.5937 60.4896 27.898 60.463 27.0666C60.4363 26.2352 59.7407 25.5828 58.9092 25.6094C58.0778 25.6361 57.4254 26.3317 57.4521 27.1631C57.4787 27.9946 58.1744 28.647 59.0058 28.6203Z" fill="white"/>
<path d="M68.5438 28.2861C69.3752 28.2595 70.0277 27.5639 70.001 26.7325C69.9744 25.901 69.2788 25.2486 68.4473 25.2753C67.6159 25.3019 66.9635 25.9975 66.9901 26.8289C67.0168 27.6604 67.7124 28.3128 68.5438 28.2861Z" fill="white"/>
<path d="M1.935 39.2466C2.76644 39.2199 3.41884 38.5243 3.39217 37.6928C3.36551 36.8614 2.66988 36.209 1.83845 36.2357C1.00701 36.2623 0.354623 36.958 0.381285 37.7894C0.407948 38.6208 1.10357 39.2732 1.935 39.2466Z" fill="white"/>
<path d="M11.4746 38.9126C12.306 38.8859 12.9584 38.1903 12.9317 37.3589C12.9051 36.5274 12.2094 35.875 11.378 35.9017C10.5466 35.9283 9.89417 36.624 9.92084 37.4554C9.9475 38.2868 10.6431 38.9392 11.4746 38.9126Z" fill="white"/>
<path d="M21.0136 38.5786C21.8451 38.5519 22.4975 37.8563 22.4708 37.0248C22.4441 36.1934 21.7485 35.541 20.9171 35.5677C20.0856 35.5944 19.4332 36.29 19.4599 37.1214C19.4866 37.9528 20.1822 38.6052 21.0136 38.5786Z" fill="white"/>
<path d="M30.6376 38.3256C31.4691 38.299 32.1215 37.6034 32.0948 36.7719C32.0682 35.9405 31.3725 35.2881 30.5411 35.3148C29.7097 35.3414 29.0573 36.037 29.0839 36.8685C29.1106 37.6999 29.8062 38.3523 30.6376 38.3256Z" fill="white"/>
<path d="M40.1772 37.9917C41.0086 37.965 41.661 37.2694 41.6344 36.438C41.6077 35.6065 40.9121 34.9541 40.0806 34.9808C39.2492 35.0074 38.5968 35.7031 38.6235 36.5345C38.6501 37.3659 39.3458 38.0183 40.1772 37.9917Z" fill="white"/>
<path d="M49.7163 37.6579C50.5477 37.6313 51.2001 36.9357 51.1734 36.1042C51.1468 35.2728 50.4511 34.6204 49.6197 34.647C48.7883 34.6737 48.1359 35.3693 48.1625 36.2008C48.1892 37.0322 48.8848 37.6846 49.7163 37.6579Z" fill="white"/>
<path d="M59.3403 37.405C60.1717 37.3783 60.8241 36.6827 60.7975 35.8513C60.7708 35.0198 60.0752 34.3674 59.2437 34.3941C58.4123 34.4208 57.7599 35.1164 57.7866 35.9478C57.8132 36.7793 58.5088 37.4317 59.3403 37.405Z" fill="white"/>
<path d="M68.8784 37.071C69.7098 37.0443 70.3622 36.3487 70.3355 35.5173C70.3089 34.6859 69.6132 34.0335 68.7818 34.0601C67.9504 34.0868 67.298 34.7824 67.3246 35.6138C67.3513 36.4453 68.0469 37.0977 68.8784 37.071Z" fill="white"/>
<path d="M2.18737 48.0337C3.01881 48.0071 3.67122 47.3115 3.64458 46.48C3.61794 45.6486 2.92233 44.9962 2.0909 45.0228C1.25946 45.0494 0.607046 45.7451 0.633687 46.5765C0.660327 47.4079 1.35594 48.0603 2.18737 48.0337Z" fill="white"/>
<path d="M11.7251 47.6999C12.5565 47.6733 13.2089 46.9776 13.1822 46.1462C13.1556 45.3148 12.4599 44.6624 11.6285 44.689C10.7971 44.7157 10.1447 45.4113 10.1713 46.2428C10.198 47.0742 10.8936 47.7266 11.7251 47.6999Z" fill="white"/>
<path d="M21.3486 47.3633C22.18 47.3366 22.8324 46.6409 22.8057 45.8095C22.7791 44.9781 22.0835 44.3257 21.252 44.3524C20.4206 44.379 19.7682 45.0746 19.7949 45.9061C19.8215 46.7375 20.5172 47.3899 21.3486 47.3633Z" fill="white"/>
<path d="M30.8901 47.113C31.7215 47.0863 32.3739 46.3907 32.3473 45.5593C32.3206 44.7278 31.625 44.0755 30.7935 44.1021C29.9621 44.1288 29.3097 44.8244 29.3364 45.6558C29.363 46.4873 30.0587 47.1396 30.8901 47.113Z" fill="white"/>
<path d="M40.4277 46.779C41.2591 46.7524 41.9115 46.0567 41.8849 45.2253C41.8582 44.3939 41.1626 43.7415 40.3311 43.7681C39.4997 43.7948 38.8473 44.4904 38.874 45.3219C38.9006 46.1533 39.5962 46.8057 40.4277 46.779Z" fill="white"/>
<path d="M50.0493 46.4426C50.8807 46.4159 51.5331 45.7203 51.5064 44.8889C51.4798 44.0575 50.7841 43.405 49.9527 43.4317C49.1213 43.4584 48.4689 44.154 48.4955 44.9854C48.5222 45.8169 49.2178 46.4693 50.0493 46.4426Z" fill="white"/>
<path d="M59.5913 46.1924C60.4227 46.1657 61.0751 45.47 61.0484 44.6386C61.0218 43.8072 60.3261 43.1548 59.4947 43.1815C58.6633 43.2081 58.0109 43.9037 58.0375 44.7352C58.0642 45.5666 58.7598 46.219 59.5913 46.1924Z" fill="white"/>
<path d="M69.1303 45.8581C69.9618 45.8314 70.6142 45.1358 70.5875 44.3044C70.5608 43.473 69.8652 42.8206 69.0338 42.8472C68.2023 42.8739 67.5499 43.5695 67.5766 44.4009C67.6033 45.2324 68.2989 45.8848 69.1303 45.8581Z" fill="white"/>
<path d="M12.061 56.4843C12.8924 56.4577 13.5448 55.7621 13.5182 54.9306C13.4915 54.0992 12.7959 53.4468 11.9644 53.4735C11.133 53.5001 10.4806 54.1958 10.5073 55.0272C10.5339 55.8586 11.2296 56.511 12.061 56.4843Z" fill="white"/>
<path d="M21.5986 56.1504C22.43 56.1237 23.0824 55.4281 23.0557 54.5966C23.0291 53.7652 22.3335 53.1128 21.502 53.1395C20.6706 53.1661 20.0182 53.8617 20.0449 54.6932C20.0715 55.5246 20.7671 56.177 21.5986 56.1504Z" fill="white"/>
<path d="M31.1401 55.9003C31.9715 55.8737 32.6239 55.1781 32.5973 54.3466C32.5706 53.5152 31.875 52.8628 31.0435 52.8895C30.2121 52.9161 29.5597 53.6117 29.5864 54.4432C29.613 55.2746 30.3086 55.927 31.1401 55.9003Z" fill="white"/>
<path d="M40.7626 55.5637C41.5941 55.537 42.2465 54.8414 42.2198 54.01C42.1931 53.1785 41.4975 52.5261 40.6661 52.5528C39.8347 52.5795 39.1823 53.2751 39.2089 54.1065C39.2356 54.938 39.9312 55.5904 40.7626 55.5637Z" fill="white"/>
<path d="M50.3002 55.2297C51.1317 55.203 51.7841 54.5074 51.7574 53.676C51.7308 52.8446 51.0351 52.1922 50.2037 52.2188C49.3723 52.2455 48.7199 52.9411 48.7465 53.7726C48.7732 54.604 49.4688 55.2564 50.3002 55.2297Z" fill="white"/>
<path d="M59.8427 54.9795C60.6741 54.9528 61.3265 54.2572 61.2999 53.4257C61.2732 52.5943 60.5776 51.9419 59.7462 51.9686C58.9147 51.9952 58.2623 52.6908 58.289 53.5223C58.3157 54.3537 59.0113 55.0061 59.8427 54.9795Z" fill="white"/>
<path d="M67.8257 53.2193C67.8257 53.554 67.993 53.8887 68.1604 54.1397C68.5788 53.3029 68.9972 52.4662 69.4156 51.6294H69.3319C68.4951 51.6294 67.8257 52.3825 67.8257 53.2193Z" fill="white"/>
<path d="M13.7687 63.7626C13.7687 62.9258 13.0156 62.2563 12.1789 62.2563C11.4258 62.2563 10.84 62.8421 10.7563 63.5115C11.4258 64.0973 12.0952 64.683 12.7646 65.2687C13.434 65.0177 13.8524 64.432 13.7687 63.7626Z" fill="white"/>
<path d="M21.8496 64.9377C22.681 64.9111 23.3334 64.2154 23.3067 63.384C23.2801 62.5525 22.5844 61.9002 21.753 61.9268C20.9216 61.9535 20.2692 62.6491 20.2958 63.4805C20.3225 64.312 21.0181 64.9644 21.8496 64.9377Z" fill="white"/>
<path d="M31.4746 64.6848C32.306 64.6581 32.9584 63.9625 32.9317 63.131C32.9051 62.2996 32.2094 61.6472 31.378 61.6739C30.5466 61.7006 29.8942 62.3962 29.9208 63.2276C29.9475 64.059 30.6431 64.7114 31.4746 64.6848Z" fill="white"/>
<path d="M41.0126 64.3508C41.844 64.3242 42.4964 63.6286 42.4698 62.7972C42.4431 61.9657 41.7475 61.3133 40.9161 61.3399C40.0847 61.3666 39.4322 62.0622 39.4589 62.8936C39.4855 63.7251 40.1811 64.3775 41.0126 64.3508Z" fill="white"/>
<path d="M50.5522 64.0171C51.3836 63.9904 52.036 63.2948 52.0094 62.4633C51.9827 61.6319 51.2871 60.9795 50.4556 61.0062C49.6242 61.0328 48.9718 61.7285 48.9985 62.5599C49.0251 63.3913 49.7208 64.0437 50.5522 64.0171Z" fill="white"/>
<path d="M60.0433 60.75C59.2065 60.75 58.5371 61.5031 58.5371 62.3399C58.5371 63.1766 59.2902 63.846 60.127 63.846C60.4617 63.846 60.7127 63.7624 60.9638 63.595C61.0474 63.5113 61.2148 63.344 61.2985 63.2603C61.5495 63.0093 61.6332 62.6746 61.6332 62.2562C61.6332 61.3357 60.8801 60.6663 60.0433 60.75Z" fill="white"/>
<path d="M23.1376 71.1254C22.887 70.8748 22.4694 70.7078 22.0518 70.7078C22.4694 70.8748 22.8035 71.0419 23.1376 71.1254Z" fill="white"/>
<path d="M33.181 71.8792C33.181 71.0425 32.4279 70.373 31.5912 70.373C30.7544 70.373 30.085 71.1261 30.085 71.9629C30.085 72.3813 30.2523 72.716 30.5033 72.9671C31.1728 73.0507 31.7585 73.1344 32.4279 73.2181C32.93 72.9671 33.2647 72.465 33.181 71.8792Z" fill="white"/>
<path d="M42.8051 71.628C42.8051 70.7913 42.052 70.1218 41.2152 70.1218C40.3784 70.1218 39.709 70.8749 39.709 71.7117C39.709 72.3811 40.1274 72.8832 40.7131 73.1342C41.2152 73.0506 41.7173 72.9669 42.1356 72.8832C42.554 72.5485 42.8051 72.1301 42.8051 71.628Z" fill="white"/>
<path d="M49.3315 70.8749C50.001 70.6239 50.7541 70.2892 51.4235 69.9545C51.2561 69.8708 51.0051 69.7871 50.7541 69.7871C50.0847 69.7871 49.5826 70.2892 49.3315 70.8749Z" fill="white"/>
</g>
</svg>
