<svg width="39" height="36" viewBox="0 0 39 36" fill="none" xmlns="http://www.w3.org/2000/svg">
<path d="M37.4604 2.36287C37.0964 2.27058 29.8629 -2.48143 21.3339 1.7556L19.5 2.6665L17.6661 1.75376C9.29593 -2.39929 1.77265 2.3075 1.53958 2.36287C1.07601 2.59165 0.686115 2.94483 0.41403 3.38243C0.141944 3.82003 -0.00147187 4.32459 1.13896e-05 4.83901V32.9321C0.000374532 33.3231 0.0941383 33.7085 0.273591 34.0566C0.453044 34.4046 0.71306 34.7053 1.03225 34.934C1.35145 35.1627 1.7207 35.3128 2.10964 35.3719C2.49858 35.4311 2.8961 35.3977 3.26951 35.2744C11.7585 32.4623 18.1443 35.7524 19.2066 35.9527C19.397 36.0158 19.603 36.0158 19.7934 35.9527C21.0581 35.7137 27.1291 32.4235 35.7305 35.2744C36.1039 35.3977 36.5014 35.4311 36.8904 35.3719C37.2793 35.3128 37.6486 35.1627 37.9677 34.934C38.2869 34.7053 38.547 34.4046 38.7264 34.0566C38.9059 33.7085 38.9996 33.3231 39 32.9321V4.83901C39.0015 4.32459 38.8581 3.82003 38.586 3.38243C38.3139 2.94483 37.924 2.59165 37.4604 2.36287ZM30.6429 2.00202V9.35752L29.3011 8.46785C29.1485 8.36666 28.9691 8.31266 28.7857 8.31266C28.6023 8.31266 28.4229 8.36666 28.2704 8.46785L26.9286 9.35752V2.00202C28.162 1.85158 29.4094 1.85158 30.6429 2.00202ZM22.1641 3.40667C23.0923 2.95284 24.067 2.59979 25.0714 2.35364V11.0815C25.0714 11.2486 25.117 11.4125 25.2034 11.5559C25.2898 11.6992 25.4137 11.8166 25.5619 11.8954C25.7102 11.9742 25.8771 12.0116 26.045 12.0035C26.213 11.9953 26.3755 11.9421 26.5154 11.8494L28.7857 10.345L31.0561 11.8494C31.1959 11.9421 31.3585 11.9953 31.5264 12.0035C31.6943 12.0116 31.8613 11.9742 32.0095 11.8954C32.1577 11.8166 32.2816 11.6992 32.368 11.5559C32.4544 11.4125 32.5 11.2486 32.5 11.0815V2.35364C33.9406 2.73453 35.3278 3.29258 36.6293 4.01486C36.7834 4.09138 36.9131 4.20899 37.0037 4.35453C37.0944 4.50008 37.1426 4.66782 37.1428 4.83901V29.1823L36.3173 28.9055C31.1372 27.2406 25.5468 27.3381 20.4286 29.1823V4.26958L22.1641 3.40667ZM1.85715 4.83901C1.85725 4.66766 1.90533 4.49972 1.99602 4.354C2.08672 4.20828 2.21643 4.09053 2.37065 4.01394C2.75415 3.91611 9.20679 -0.3846 16.8359 3.40667L18.5714 4.26958V29.1823C13.46 27.3018 7.85724 27.2041 2.68265 28.9055L1.85715 29.1823V4.83901ZM36.3173 33.5227C27.5535 30.622 20.0887 33.9962 19.5 34.1041C14.1347 31.9633 8.18445 31.7579 2.68265 33.5236C2.58836 33.555 2.48791 33.5636 2.38962 33.5487C2.29133 33.5338 2.19801 33.4959 2.11736 33.4381C2.03671 33.3803 1.97105 33.3043 1.92581 33.2163C1.88057 33.1283 1.85703 33.0309 1.85715 32.9321V31.1278L3.26951 30.6599C11.7576 27.8469 18.1322 31.1352 19.2066 31.3382C19.3957 31.4015 19.6005 31.4015 19.7897 31.3382C21.0544 31.0992 27.1254 27.809 35.7268 30.6599L37.1428 31.1278V32.9321C37.143 33.0309 37.1195 33.1283 37.0743 33.2163C37.029 33.3043 36.9633 33.3803 36.8827 33.438C36.802 33.4957 36.7086 33.5335 36.6103 33.5483C36.512 33.563 36.4116 33.5542 36.3173 33.5227Z" fill="white"/>
</svg>
