<svg width="22" height="22" viewBox="0 0 22 22" fill="none" xmlns="http://www.w3.org/2000/svg">
<path d="M11 0C4.93462 0 0 4.93462 0 11C0 17.0654 4.93462 22 11 22C17.0654 22 22 17.0654 22 11C22 4.93462 17.0654 0 11 0ZM11 20.5333C5.74346 20.5333 1.4667 16.2565 1.4667 11C1.4667 5.74346 5.74346 1.46669 11 1.46669C16.2565 1.46669 20.5333 5.74346 20.5333 11C20.5333 16.2565 16.2565 20.5333 11 20.5333Z" fill="#061058"/>
<path d="M15.82 7.46539C15.4885 7.23439 15.0309 7.31431 14.7992 7.64654L10.114 14.3389L7.05821 11.894C6.74291 11.641 6.28013 11.6923 6.02791 12.0084C5.77491 12.3245 5.82621 12.7865 6.14229 13.0387L9.80898 15.972C9.93952 16.0776 10.1008 16.1333 10.2666 16.1333C10.3011 16.1333 10.3363 16.1311 10.3708 16.126C10.571 16.0974 10.7514 15.9867 10.8672 15.8202L16.0005 8.48693C16.232 8.15547 16.1521 7.69785 15.82 7.46539Z" fill="#061058"/>
</svg>
