<svg width="51" height="51" viewBox="0 0 51 51" fill="none" xmlns="http://www.w3.org/2000/svg">
<path d="M24.8927 4.85718C12.506 4.85718 2.42847 14.9347 2.42847 27.3215C2.42847 39.7082 12.506 49.7857 24.8927 49.7857C37.2795 49.7857 47.357 39.7082 47.357 27.3215C47.357 14.9347 37.2795 4.85718 24.8927 4.85718ZM24.8927 48.0047C14.1578 48.0047 4.20948 38.0564 4.20948 27.3215C4.20948 16.5865 14.1578 6.63819 24.8927 6.63819C35.6277 6.63819 45.576 16.5865 45.576 27.3215C45.576 38.0564 35.6277 48.0047 24.8927 48.0047Z" fill="white"/>
<path d="M32.4162 27.0382H25.2115V15.3407C25.2115 14.514 25.114 13.9644 24.2858 13.9644C23.4576 13.9644 23.4307 14.514 23.4307 15.3407V27.3215C23.4307 28.1481 24.1 28.8191 24.9282 28.8191H32.4164C33.2446 28.8191 33.9139 28.7553 33.9139 27.9286C33.9139 27.102 33.2444 27.0382 32.4162 27.0382Z" fill="white"/>
</svg>
