<svg width="39" height="48" viewBox="0 0 39 48" fill="none" xmlns="http://www.w3.org/2000/svg">
<path d="M28.6765 11.4286C28.3723 11.4286 28.0805 11.3082 27.8654 11.0938C27.6503 10.8795 27.5294 10.5888 27.5294 10.2857V0H3.44118C2.52852 0 1.65324 0.361223 1.0079 1.0042C0.362551 1.64719 0 2.51926 0 3.42857V44.5714C0 45.4807 0.362551 46.3528 1.0079 46.9958C1.65324 47.6388 2.52852 48 3.44118 48H35.5588C36.4715 48 37.3468 47.6388 37.9921 46.9958C38.6374 46.3528 39 45.4807 39 44.5714V11.4286H28.6765ZM6.88235 9.14286H20.6471C20.9513 9.14286 21.243 9.26326 21.4582 9.47759C21.6733 9.69192 21.7941 9.98261 21.7941 10.2857C21.7941 10.5888 21.6733 10.8795 21.4582 11.0938C21.243 11.3082 20.9513 11.4286 20.6471 11.4286H6.88235C6.57813 11.4286 6.28637 11.3082 6.07126 11.0938C5.85614 10.8795 5.73529 10.5888 5.73529 10.2857C5.73529 9.98261 5.85614 9.69192 6.07126 9.47759C6.28637 9.26326 6.57813 9.14286 6.88235 9.14286ZM32.1176 38.8571H6.88235C6.57813 38.8571 6.28637 38.7367 6.07126 38.5224C5.85614 38.3081 5.73529 38.0174 5.73529 37.7143C5.73529 37.4112 5.85614 37.1205 6.07126 36.9062C6.28637 36.6918 6.57813 36.5714 6.88235 36.5714H32.1176C32.4219 36.5714 32.7136 36.6918 32.9287 36.9062C33.1439 37.1205 33.2647 37.4112 33.2647 37.7143C33.2647 38.0174 33.1439 38.3081 32.9287 38.5224C32.7136 38.7367 32.4219 38.8571 32.1176 38.8571ZM32.1176 29.7143H6.88235C6.57813 29.7143 6.28637 29.5939 6.07126 29.3796C5.85614 29.1652 5.73529 28.8745 5.73529 28.5714C5.73529 28.2683 5.85614 27.9776 6.07126 27.7633C6.28637 27.549 6.57813 27.4286 6.88235 27.4286H32.1176C32.4219 27.4286 32.7136 27.549 32.9287 27.7633C33.1439 27.9776 33.2647 28.2683 33.2647 28.5714C33.2647 28.8745 33.1439 29.1652 32.9287 29.3796C32.7136 29.5939 32.4219 29.7143 32.1176 29.7143ZM32.1176 20.5714H6.88235C6.57813 20.5714 6.28637 20.451 6.07126 20.2367C5.85614 20.0224 5.73529 19.7317 5.73529 19.4286C5.73529 19.1255 5.85614 18.8348 6.07126 18.6204C6.28637 18.4061 6.57813 18.2857 6.88235 18.2857H32.1176C32.4219 18.2857 32.7136 18.4061 32.9287 18.6204C33.1439 18.8348 33.2647 19.1255 33.2647 19.4286C33.2647 19.7317 33.1439 20.0224 32.9287 20.2367C32.7136 20.451 32.4219 20.5714 32.1176 20.5714Z" fill="#076A50" fill-opacity="0.5"/>
<path d="M29 0V10H39L29 0Z" fill="#076A50" fill-opacity="0.5"/>
</svg>
