<svg width="46" height="30" viewBox="0 0 46 30" fill="none" xmlns="http://www.w3.org/2000/svg">
<path d="M45.4294 9.00009L23.4169 0.0698744C23.3048 0.0237483 23.1846 0 23.0632 0C22.9417 0 22.8215 0.0237483 22.7094 0.0698744L0.560785 9.32276C0.39378 9.39273 0.251441 9.50992 0.151665 9.6596C0.0518878 9.80927 -0.000873942 9.98475 1.09509e-05 10.164C0.000895844 10.3432 0.0553885 10.5181 0.156639 10.6668C0.257889 10.8155 0.401377 10.9314 0.569065 10.9997L22.5815 19.9299C22.6938 19.9762 22.8141 20 22.9357 20C23.0573 20 23.1777 19.9762 23.2899 19.9299L45.4386 10.678C45.6058 10.608 45.7484 10.4908 45.8483 10.3409C45.9482 10.1911 46.001 10.0154 46 9.836C45.999 9.65658 45.9443 9.48146 45.8428 9.33271C45.7412 9.18396 45.5974 9.06822 45.4294 9.00009Z" fill="#076A50" fill-opacity="0.5"/>
<path d="M22.584 21.6332L7 15.238V23.429C7 23.5632 7.02873 23.6959 7.08424 23.8181C7.13976 23.9402 7.22079 24.0491 7.32188 24.1374C11.6696 27.9179 17.2379 30 23.0005 30C28.763 30 34.3314 27.9179 38.6791 24.1374C38.78 24.049 38.8608 23.9401 38.9162 23.8179C38.9715 23.6958 39.0001 23.5632 39 23.429V15L23.3078 21.6275C23.1935 21.6762 23.0707 21.7017 22.9464 21.7027C22.8222 21.7036 22.699 21.68 22.584 21.6332Z" fill="#076A50" fill-opacity="0.5"/>
</svg>
