<svg width="194" height="64" viewBox="0 0 194 64" fill="none" xmlns="http://www.w3.org/2000/svg">
<g clip-path="url(#clip0)">
<path d="M42.2515 52.8001C45.0712 50.1001 46.6824 48.9001 50.1064 46.7001C50.0057 45.8001 50.0057 45.4001 49.905 44.6001C46.5817 46.7001 45.0712 48.0001 42.3522 50.6001C42.2515 51.4001 42.2515 51.9001 42.2515 52.8001Z" fill="#3B68CF"/>
<path d="M46.5818 42.7999C49.6029 40.3999 51.3149 39.4999 54.5374 37.8999C54.9402 39.1999 55.0409 39.7999 55.4438 41.0999C51.8184 42.7999 50.0057 43.8999 46.7832 46.2999C46.7832 44.7999 46.6825 44.1999 46.5818 42.7999Z" fill="#83CD38"/>
<path d="M52.7246 40.1999C56.2493 38.2999 58.0619 37.4999 61.788 36.8999C62.5936 38.1999 62.9964 38.7999 63.8021 40.1999C59.4718 41.0999 57.357 41.8999 53.5302 43.9999C53.2281 42.3999 53.0267 41.6999 52.7246 40.1999Z" fill="#4675DF"/>
<path d="M44.5676 55.5C47.5888 52.9 49.3007 51.7 52.9261 49.5C53.0268 50.2 53.1275 50.5 53.2282 51.3C49.4014 53.6 47.6895 54.9 44.5676 57.6C44.6683 56.7 44.6683 56.3 44.5676 55.5Z" fill="#FF6742"/>
<path d="M44.5676 53.6999C47.5888 51.1999 49.2 49.8999 52.7247 47.8999C52.8254 48.5999 52.8254 48.8999 52.9261 49.4999C49.3007 51.5999 47.5888 52.8999 44.5676 55.4999C44.5676 54.6999 44.5676 54.3999 44.5676 53.6999Z" fill="#FF7547"/>
<path d="M42.2515 57.1001C44.0641 55.4001 45.0712 54.5001 47.186 52.9001C47.0853 51.8001 47.0853 51.2001 47.0853 50.1001C44.9705 51.7001 44.0641 52.5001 42.2515 54.2001C42.2515 55.3001 42.2515 55.9001 42.2515 57.1001Z" fill="#E33C58"/>
<path d="M54.3359 46.2001C56.5514 45.0001 57.8606 44.5001 60.2775 43.6001C60.5796 44.3001 60.6803 44.7001 60.9824 45.4001C58.3641 46.3001 57.1557 46.9001 54.7388 48.1001C54.5373 47.4001 54.5373 47.0001 54.3359 46.2001Z" fill="#FF5780"/>
<path d="M42.2515 55.3C45.474 52.3 47.2867 50.8 51.3148 48.3C51.2141 47.3 51.1134 46.7 50.912 45.8C47.0853 48.2 45.3733 49.6 42.2515 52.5C42.2515 53.6 42.2515 54.1 42.2515 55.3Z" fill="#EC3A6C"/>
<path d="M59.3712 41.2C57.5586 41.9 55.8466 42.6 53.5304 43.9C53.4297 43.2 53.329 42.7 53.1276 42.2C52.1205 42.8 51.1135 43.3 50.2071 43.9C50.2071 44.2 50.3078 44.5 50.3078 44.9C50.2071 45 50.0057 45 49.905 45.2C49.905 45.6 50.0057 45.9 50.0057 46.5C50.3078 46.3 50.61 46.1 50.9121 45.9C51.0128 46.4 51.0128 46.8999 51.1135 47.2999C54.1346 45.2999 56.6522 44.0999 60.8818 42.7999C60.7811 42.6999 60.7811 42.6 60.6804 42.4C60.479 42.5 60.2776 42.5 59.9755 42.7C59.774 42 59.6733 41.7 59.3712 41.2Z" fill="#33DAD3"/>
<path d="M49.905 45.1001C49.2 45.5001 48.5958 45.9001 48.0923 46.3001C48.193 46.7001 48.193 47.1001 48.193 47.6001C48.7972 47.2001 49.4014 46.8001 50.0057 46.4001C50.0057 45.9001 49.905 45.6001 49.905 45.1001Z" fill="#0C59AB"/>
<path d="M53.1275 41.7C52.1204 42.2 51.3148 42.8 50.207 43.5C50.207 43.6 50.207 43.7 50.3077 43.9C51.2141 43.3 52.1204 42.8 53.2282 42.2C53.1275 42 53.1275 41.9 53.1275 41.7Z" fill="#1AAF2E"/>
<path d="M59.3711 39.2C56.7528 40 54.9401 40.8 53.1274 41.7C53.1274 41.8 53.2281 41.9999 53.2281 42.0999C53.3288 42.5999 53.4296 43.0999 53.631 43.7999C55.9472 42.4999 57.6591 41.7999 59.4718 41.0999C59.3711 40.8999 59.3711 40.7 59.1697 40.4C59.4718 40.3 59.6732 40.3 59.8746 40.2C59.6732 40 59.4718 39.7 59.3711 39.2Z" fill="#0E64B9"/>
<path d="M50.9121 45.8C50.61 45.9 50.3079 46.2001 50.0058 46.4001C49.3009 46.8001 48.6966 47.2 48.1931 47.6C48.2938 48 48.2938 48.6001 48.2938 49.2001C49.3009 48.5001 50.2072 47.9 51.1135 47.3C51.1135 46.8 51.1135 46.3 50.9121 45.8Z" fill="#2F3259"/>
<path d="M62.1909 42.5C63.8022 42.1 64.6078 41.9 66.3198 41.7C66.5212 42 66.6219 42.2 66.8233 42.5C65.1113 42.7 64.3057 42.9 62.6944 43.4C62.493 43.1 62.3923 42.8 62.1909 42.5Z" fill="#5BE2DE"/>
<path d="M66.5211 39C65.3127 39.1 64.3056 39.2 63.3993 39.4C63.5 39.6 63.7014 39.8 63.8021 40.1C62.3922 40.4 61.1838 40.7 60.1768 41C60.2775 41.4 60.5796 41.8 60.6803 42.3C63.3993 41.5 64.9099 41.1 67.931 40.9C67.3268 40.2 67.1253 39.8 66.5211 39Z" fill="#2BA2CC"/>
<path d="M63.3994 39.3999C62.2917 39.4999 61.2846 39.7999 59.8748 40.2999C59.9755 40.4999 59.9755 40.6999 60.1769 40.9999C61.1839 40.6999 62.3924 40.3999 63.8022 40.0999C63.7015 39.8999 63.5001 39.6999 63.3994 39.3999Z" fill="#0C4AB2"/>
<path d="M60.1769 41C59.8747 41.1 59.6733 41.1 59.4719 41.2C59.6733 41.6 59.8747 42 60.0761 42.6C60.2776 42.5 60.479 42.4 60.7811 42.3C60.5797 41.8 60.2776 41.4 60.1769 41Z" fill="#098AA9"/>
<path d="M59.8746 40.3C59.6732 40.4 59.4718 40.4 59.1697 40.5C59.2704 40.8 59.3711 40.9001 59.4718 41.2001C59.6732 41.1001 59.8746 41.1 60.1767 41C59.9753 40.8 59.9753 40.6 59.8746 40.3Z" fill="#024094"/>
<path d="M70.6501 42.3999C72.4628 42.3999 73.3692 42.3999 75.0811 42.5999C75.3833 42.9999 75.484 43.0999 75.7861 43.3999C73.9734 43.1999 73.067 43.1999 71.2544 43.1999C71.053 42.8999 70.9523 42.7999 70.6501 42.3999Z" fill="#FFC0C4"/>
<path d="M62.2915 31.7001C63.3993 31.6001 63.9028 31.7001 65.0105 31.8001C65.2119 32.2001 65.4133 32.3001 65.7154 32.6001C64.6077 32.5001 64.1042 32.5001 62.9964 32.5001C62.6943 32.1001 62.4929 32.0001 62.2915 31.7001Z" fill="#4574DE"/>
<path d="M69.0388 40.2001C70.4487 40.1001 71.1536 40.2001 72.5635 40.3001C72.8656 40.7001 72.9663 40.8001 73.2684 41.2001C71.9592 41.0001 71.2543 41.0001 69.7437 41.0001C69.4416 40.7001 69.3409 40.5001 69.0388 40.2001Z" fill="#53B2DE"/>
<path d="M71.6572 39C72.9664 39.1 73.6713 39.3 74.9805 39.7C75.3833 40.1 75.5847 40.2 75.9875 40.6C74.5776 40.2 73.8727 40.1 72.4629 39.9C72.1607 39.4 71.9593 39.3 71.6572 39Z" fill="#AEE0F9"/>
<path d="M64.7085 37.7001C66.0177 37.6001 66.6219 37.6001 67.931 37.6001C68.2331 37.9001 68.3339 38.1001 68.636 38.4001C67.3268 38.4001 66.7226 38.4001 65.3127 38.5001C65.1113 38.2001 65.0106 38.0001 64.7085 37.7001Z" fill="#7097FC"/>
<path d="M61.9895 33.7001C62.9965 33.6001 63.6008 33.6001 64.6078 33.6001C64.8092 34.0001 65.0106 34.1001 65.3127 34.4001C64.205 34.4001 63.7015 34.4001 62.5937 34.5001C62.2916 34.1001 62.1909 34.0001 61.9895 33.7001Z" fill="#FFF001"/>
<path d="M52.4226 37.1999C53.4297 36.6999 53.9332 36.3999 54.9402 35.8999C55.0409 36.2999 55.1416 36.4999 55.2423 36.7999C54.2353 37.2999 53.6311 37.4999 52.5233 38.0999C52.5233 37.7999 52.5233 37.5999 52.4226 37.1999Z" fill="#3DB399"/>
<path d="M51.5164 34.4001C52.5234 33.8001 53.1276 33.6001 54.1347 33.1001C54.2354 33.5001 54.2354 33.6001 54.3361 34.0001C53.329 34.4001 52.7248 34.7001 51.7178 35.3001C51.7178 34.9001 51.6171 34.8001 51.5164 34.4001Z" fill="#045999"/>
<path d="M49.0994 36.9001C50.1064 36.2001 50.7106 35.9 51.8184 35.3C51.9191 35.7 51.9191 35.9 51.9191 36.3C50.8113 36.9 50.3078 37.2001 49.2001 37.9001C49.2001 37.5001 49.2001 37.4001 49.0994 36.9001Z" fill="#006181"/>
<path d="M46.6824 43.6001C45.1719 44.6001 43.9634 45.7001 42.2515 47.4001C42.2515 48.7001 42.2515 49.4001 42.2515 50.6001C44.467 48.5001 45.8768 47.3001 48.0923 45.7001C48.0923 45.6001 48.0923 45.6001 48.0923 45.5001C47.6895 45.8001 47.3874 46.1001 46.8839 46.4001C46.7832 45.2001 46.6824 44.5001 46.6824 43.6001Z" fill="#FCEE07"/>
<path d="M47.9917 45.6001C45.8769 47.2001 44.4671 48.3001 42.1509 50.5001C42.1509 50.6001 42.1509 50.9001 42.1509 51.1001C44.3664 49.0001 45.8769 47.8001 47.9917 46.3001C48.0924 46.1001 48.0924 45.9001 47.9917 45.6001Z" fill="#3A6106"/>
<path d="M49.9049 41.3999C48.5958 42.1999 47.5887 42.8999 46.6824 43.5999C46.6824 44.4999 46.7831 45.1999 46.7831 46.2999C47.1859 45.9999 47.5887 45.6999 47.9915 45.3999C47.9915 45.2999 47.9915 45.0999 47.9915 44.9999C48.6965 44.3999 49.5021 43.8999 50.1063 43.3999C50.1063 42.7999 50.0056 42.2999 49.9049 41.3999Z" fill="#81BF02"/>
<path d="M50.3078 43.8999C49.6029 44.2999 48.8979 44.8999 48.0923 45.4999C48.0923 45.5999 48.0923 45.5999 48.0923 45.6999C48.6965 45.3999 49.2 44.9999 49.905 44.5999C49.905 44.7999 49.905 44.9999 50.0057 45.1999C50.1064 45.0999 50.3078 44.9999 50.4085 44.8999C50.3078 44.4999 50.3078 44.1999 50.3078 43.8999Z" fill="#32CB06"/>
<path d="M49.8044 44.5C49.0994 44.9 48.5959 45.3 47.9917 45.6C48.0924 45.8 48.0924 46 48.0924 46.3C48.5959 45.9 49.2002 45.5 49.9051 45.1C49.8044 44.9 49.8044 44.8 49.8044 44.5Z" fill="#0C5305"/>
<path d="M50.2071 43.5C49.5021 43.9 48.7972 44.5 48.0923 45.1C48.0923 45.2 48.0923 45.3 48.0923 45.5C48.8979 44.9 49.6028 44.4 50.3078 43.9C50.2071 43.7 50.2071 43.7 50.2071 43.5Z" fill="#1AA301"/>
<path d="M42.2515 51.1C43.5606 50 44.1648 49.4 45.5747 48.3C45.5747 47.7 45.474 47.4 45.474 46.8C44.1648 47.8 43.5606 48.4 42.2515 49.5C42.2515 50.2 42.2515 50.5 42.2515 51.1Z" fill="#FD8B4D"/>
<path d="M58.6663 36.3999C60.781 35.7999 61.8888 35.5999 63.9029 35.3999C64.3057 35.9999 64.6078 36.3999 65.1113 36.9999C62.7951 37.1999 61.5867 37.3999 59.3712 38.0999C59.0691 37.3999 58.9684 37.0999 58.6663 36.3999Z" fill="#51D4E6"/>
<path d="M43.8628 42.5C46.4811 40.2 47.891 39.2 50.61 37.5C50.8114 38.6 50.9121 39.2 51.0128 40.2C47.9917 42 46.5818 43.1 43.8628 45.4C43.8628 44.3 43.8628 43.7 43.8628 42.5Z" fill="#1EAB67"/>
<path d="M42.2515 49C43.9634 47.4 44.9705 46.6 46.7832 45.2C46.7832 44 46.6825 43.4 46.6825 42.2C44.8698 43.6 43.9634 44.3 42.2515 46C42.2515 47.1 42.2515 47.7 42.2515 49Z" fill="#2CA67D"/>
<path d="M42.2515 47.3C43.762 46 44.467 45.2 46.0782 44C45.9775 43.1 45.9775 42.7 45.9775 41.8C44.467 43 43.762 43.6 42.2515 45C42.2515 46 42.2515 46.5 42.2515 47.3Z" fill="#00997A"/>
<path d="M42.2515 45.9001C44.0641 44.1001 45.0712 43.3 47.0853 41.8C46.9846 41 46.9846 40.6 46.9846 39.8C45.0712 41.2 44.1648 42.0001 42.2515 43.7001C42.2515 44.6001 42.2515 45.0001 42.2515 45.9001Z" fill="#4293B0"/>
<path d="M42.6543 42C45.2726 39.6 46.6825 38.5 49.4015 36.8C49.5022 37.5 49.5022 38.0001 49.6029 38.7001C46.6825 40.5001 45.2726 41.7001 42.6543 44.2001C42.6543 43.4001 42.6543 42.9 42.6543 42Z" fill="#027298"/>
<path d="M42.2515 44.7999C42.5532 44.5999 42.6537 44.3999 42.9554 44.1999C42.9554 43.0999 42.9554 42.4999 42.9554 41.3999C42.6537 41.5999 42.5532 41.7999 42.2515 41.9999C42.2515 43.0999 42.2515 43.6999 42.2515 44.7999Z" fill="#192263"/>
<path d="M63.0972 44.7999C64.507 44.3999 65.212 44.1999 66.6218 43.8999C66.8232 44.2999 66.9239 44.3999 67.0246 44.7999C65.6148 45.0999 64.9098 45.1999 63.5 45.5999C63.2986 45.3999 63.1979 45.0999 63.0972 44.7999Z" fill="#FDCB5A"/>
<path d="M55.2422 49.6999C56.652 48.8999 57.357 48.5999 58.8675 47.8999C58.9683 48.2999 59.069 48.5999 59.1697 48.8999C57.6591 49.5999 56.9542 49.8999 55.4436 50.6999C55.4436 50.3999 55.3429 50.1999 55.2422 49.6999Z" fill="#FE9D3E"/>
<path d="M56.4507 33.8001C57.4577 33.5001 57.9612 33.4001 58.8676 33.1001C59.069 33.5001 59.1697 33.6001 59.3711 34.1001C58.3641 34.3001 57.7598 34.5001 56.7528 34.8001C56.6521 34.3001 56.5514 34.1001 56.4507 33.8001Z" fill="#3DB19A"/>
<path d="M31.7782 25.1C32.0803 25.3001 32.4832 25.5001 32.7853 25.7001C28.2536 30.7001 28.2536 30.7001 28.2536 30.7001C28.0522 30.6001 27.8508 30.6 27.6494 30.6C27.1458 30.4001 26.6423 30.3001 26.0381 30.2001C30.0663 23.8001 30.0663 23.8 30.0663 23.8C30.167 24.1 30.4691 24.4 30.7712 24.6C30.9726 24.7 31.3754 24.9 31.7782 25.1Z" fill="#535353"/>
<path d="M41.8486 14.2C41.9493 14.2 42.2515 14.2 42.3522 14.1C41.6472 15.9 41.6472 15.9 41.6472 15.9C41.6472 16 41.6472 16 41.6472 16C41.5465 16.1 41.5465 16.1 41.5465 16.1C36.1085 22 36.1085 22 36.1085 22C35.605 21.8 35.1015 21.6 34.4972 21.3C34.0944 21.1 33.7923 20.9 33.3895 20.6C32.9867 20.3 32.5838 20.2 32.0803 20.2C37.4176 11.5 37.4176 11.5 37.4176 11.5C37.4176 11.6 37.4176 11.6 37.4176 11.6C37.9212 12.6 38.9282 13.5 40.036 14C40.4388 14.1 41.043 14.3 41.5465 14.3C41.7479 14.2 41.7479 14.2 41.8486 14.2Z" fill="#535353"/>
<path d="M51.2142 19.6C50.5093 20.2 49.8044 20.7 49.0995 21.2C48.4952 21.5 47.891 21.8 47.2868 22.1C41.748 16.1 41.748 16.1 41.748 16.1C41.748 15.9 41.748 15.9 41.748 15.9C41.748 14.2 41.748 14.2 41.748 14.2C41.8488 14.2 41.8487 14.2 41.9495 14.2C42.0502 14.2 42.3523 14.2 42.453 14.1C42.8558 14.1 43.1579 14 43.5607 13.9C44.7692 13.5 45.6755 12.6 46.2797 11.5L51.2142 19.6Z" fill="#6D6D6D"/>
<path d="M58.4649 31.2C57.9614 31.3 57.4579 31.4 56.9544 31.6C56.7529 31.7 56.5515 31.7 56.3501 31.7C50.7107 25.7 50.7107 25.7 50.7107 25.7C51.1135 25.5 51.5163 25.3 52.0198 25C52.6241 24.6 53.2283 24.2 53.8325 23.7L58.4649 31.2Z" fill="#6D6D6D"/>
<path d="M51.2141 19.6C50.5091 20.2 49.8042 20.7 49.0993 21.2C43.5605 13.9 43.5605 13.9 43.5605 13.9C44.769 13.5 45.6753 12.6 46.2796 11.5L51.2141 19.6Z" fill="#535353"/>
<path d="M58.4648 31.2C57.9613 31.3 57.4578 31.4 56.9543 31.6C52.0198 25 52.0198 25 52.0198 25C52.624 24.6 53.2282 24.2 53.8325 23.7L58.4648 31.2Z" fill="#535353"/>
<path d="M30.6706 24.4C30.9727 24.6 31.3755 24.8 31.6776 25.1C27.5488 30.5 27.5488 30.5 27.5488 30.5C27.0452 30.3 26.5417 30.2 25.9375 30.1C29.9657 23.7 29.9657 23.7 29.9657 23.7C30.1671 23.9 30.3685 24.2 30.6706 24.4Z" fill="#494949"/>
<path d="M40.1368 13.9001C34.5981 21.3001 34.5981 21.3001 34.5981 21.3001C34.1952 21.1001 33.8931 20.9001 33.4903 20.6001C33.0875 20.3001 32.6847 20.2001 32.1812 20.2001C37.5185 11.6001 37.5185 11.6001 37.5185 11.6001C38.022 12.6001 39.029 13.4001 40.1368 13.9001Z" fill="#494949"/>
<path d="M73.1677 45.4999C72.7648 45.4999 72.2613 45.4999 71.7578 45.5999C82.5331 58.5999 82.5331 58.5999 82.5331 58.5999C72.9662 53.0999 62.8958 51.9999 52.8254 55.5999C49.5022 56.6999 46.1789 58.2999 42.755 60.4999C42.755 59.4999 42.755 59.4999 42.755 59.4999C42.6543 59.5999 42.3522 59.8999 42.2515 59.9999C42.1508 41.3999 42.1508 41.3999 42.1508 41.3999C43.3592 40.1999 44.5677 39.1999 45.7761 38.1999C44.5677 38.7999 43.3592 39.4999 42.1508 40.2999L42.0501 40.1999C37.2163 35.6999 32.3825 32.6999 27.7501 31.1999C24.024 30.0999 20.8015 30.1999 17.3775 31.0999C17.1761 31.1999 17.1761 31.1999 17.1761 31.1999C0.559918 47.4999 0.559918 47.4999 0.559918 47.4999C0.559918 47.4999 4.58809 46.6999 10.3282 46.9999C0.0563965 60.0999 0.0563965 60.0999 0.0563965 60.0999C0.157101 60.0999 0.157101 60.0999 0.157101 59.9999C1.46626 59.3999 10.5296 55.0999 20.4994 55.0999C27.6494 55.0999 34.6986 58.2999 41.6472 63.0999C42.0501 63.3999 42.0501 63.3999 42.0501 63.3999C42.1508 63.3999 42.1508 63.3999 42.1508 63.3999C42.2515 63.3999 42.2515 63.3999 42.2515 63.3999C42.3522 63.2999 42.3522 63.2999 42.3522 63.2999C42.755 63.0999 42.755 63.0999 42.755 63.0999C44.5677 61.8999 46.2796 60.7999 47.9916 59.7999C50.2071 58.5999 52.4226 57.5999 54.6381 56.7999C55.5444 56.4999 56.4508 56.1999 57.2564 55.9999C58.1627 55.7999 59.0691 55.5999 59.9754 55.3999C61.2846 55.1999 62.6944 55.0999 64.0036 55.0999C73.2684 55.1999 81.8282 58.8999 84.0437 59.8999C84.4465 59.9999 84.6479 60.0999 84.6479 60.0999L73.1677 45.4999ZM1.66766 58.7999C10.1268 48.2999 10.1268 48.2999 10.1268 48.2999C11.1339 46.9999 11.1339 46.9999 11.1339 46.9999C14.155 47.1999 17.5789 47.6999 21.1036 48.7999C24.9303 50.0999 28.8578 52.1999 32.5839 54.9999C33.3895 55.6999 34.1951 56.2999 35.0008 56.8999C23.8226 51.8999 12.3423 52.6999 1.66766 58.7999ZM41.6472 60.2999C28.5557 47.6999 14.7592 43.2999 2.17119 46.5999C17.881 31.9999 17.881 31.9999 17.881 31.9999C25.6353 29.9999 33.9937 33.2999 42.1508 40.9999L41.6472 60.2999Z" fill="#5D5D5D"/>
<path d="M45.6755 9.4001C45.6755 11.5001 43.9635 13.2001 41.8487 13.2001C39.7339 13.2001 38.022 11.5001 38.022 9.4001C38.022 7.3001 39.7339 5.6001 41.8487 5.6001C43.9635 5.6001 45.6755 7.3001 45.6755 9.4001Z" fill="#535353"/>
<path d="M52.5232 22.4999C52.5232 23.2999 51.8183 24.0999 50.9119 24.0999C50.1063 24.0999 49.4014 23.3999 49.4014 22.4999C49.4014 21.5999 50.1063 20.8999 50.9119 20.8999C51.919 20.9999 52.5232 21.6999 52.5232 22.4999Z" fill="#535353"/>
<path d="M51.0127 24.7001C50.6099 24.7001 50.2071 24.6 49.905 24.3C48.3944 25.1 46.8839 25.6 45.1719 26C41.1437 26.7 37.1155 26.2 33.6916 24.4C33.3895 24.6 32.9867 24.8 32.4832 24.8C36.3099 26.9 40.7409 27.8 45.3733 26.9C47.4881 26.5 49.5022 25.7001 51.2141 24.7001C51.1134 24.7001 51.1134 24.7001 51.0127 24.7001Z" fill="#535353"/>
<path d="M34.598 22.7C34.598 22.8 34.598 22.9 34.598 23.1C37.7198 24.7 41.3452 25.2 44.8699 24.4C46.3804 24.2 47.6896 23.7 48.9987 23C48.9987 22.9 48.898 22.7 48.898 22.6C48.898 22.4 48.9987 22.2 48.9987 22C47.6896 22.7 46.2797 23.3 44.7691 23.6C41.1438 24.3 37.5184 23.7 34.4973 22C34.4973 22.2 34.598 22.4 34.598 22.7Z" fill="#535353"/>
<path d="M56.7528 16.4C56.6521 16.4 56.6521 16.4 56.7528 16.4C55.9472 16 54.9402 16.2 54.3359 17C53.5303 18.3 52.5233 19.4 51.2141 20.4C51.6169 20.5 51.919 20.5 52.2212 20.8C53.3289 19.8 54.3359 18.7 55.1416 17.5C55.2423 17.4 55.4437 17.2 55.6451 17.1C55.7458 17.1 55.9472 17.1 56.1486 17.2C56.35 17.3 56.5514 17.5 56.5514 17.7C56.6521 17.8 56.6521 18.1 56.4507 18.2C55.4437 19.7 54.3359 21 53.1275 22.1C53.1275 22.2 53.1275 22.3 53.1275 22.5C53.1275 22.9 53.0268 23.2 52.9261 23.5C54.6381 22.2 56.1486 20.5 57.3571 18.8C57.8606 17.9 57.5585 16.9 56.7528 16.4Z" fill="#535353"/>
<path d="M33.9937 22.7001C33.9937 23.5001 33.2887 24.2001 32.3824 24.2001C31.476 24.2001 30.8718 23.5001 30.8718 22.7001C30.8718 21.8001 31.5768 21.1001 32.3824 21.1001C33.188 21.1001 33.9937 21.8001 33.9937 22.7001Z" fill="#535353"/>
<path d="M32.6845 55C26.1387 51.4 19.1901 48.5 10.1267 48.3C11.1338 47 11.1338 47 11.1338 47C14.1549 47.2 17.5788 47.7 21.1035 48.8C24.9302 50 28.8577 52.1 32.6845 55Z" fill="#D1D3D4"/>
<path d="M42.2512 63.4001C30.771 59.4001 18.7871 56.8001 0.257568 60.1001C0.257568 60.0001 0.257568 60.0001 0.257568 60.0001C1.56672 59.4001 10.6301 55.1001 20.5998 55.1001C27.7498 55.1001 34.7991 58.3001 41.7477 63.1001C42.1505 63.4001 42.1505 63.4001 42.2512 63.4001Z" fill="#D1D3D4"/>
<path d="M84.1443 60.1001C65.7154 56.6001 53.7316 59.3001 42.3521 63.3001C42.7549 63.1001 42.7549 63.1001 42.7549 63.1001C44.5675 61.9001 46.2795 60.8001 47.9915 59.8001C50.207 58.6001 52.4225 57.6001 54.638 56.8001C55.5443 56.5001 56.4506 56.2001 57.2563 56.0001C58.1626 55.8001 59.069 55.6001 59.9753 55.4001C61.2844 55.2001 62.6943 55.1001 64.0035 55.1001C73.2682 55.2001 81.8281 58.9001 84.0436 59.9001L84.1443 60.1001Z" fill="#D1D3D4"/>
<path d="M42.5535 0.7C42.5535 4.8 42.5535 4.8 42.5535 4.8C42.3521 4.7 42.1507 4.7 41.8486 4.7C41.7479 4.7 41.7479 4.7 41.7479 4.7C41.6472 4.7 41.6472 4.7 41.6472 4.7C41.4458 4.7 41.2444 4.7 41.043 4.8C41.043 0.7 41.043 0.7 41.043 0.7C41.043 0.3 41.3451 0 41.7479 0C42.2514 0 42.5535 0.3 42.5535 0.7Z" fill="#535353"/>
</g>
<defs>
<clipPath id="clip0">
<rect width="193.251" height="63.4" fill="white" transform="translate(0.0563965)"/>
</clipPath>
</defs>
</svg>
