<svg width="25" height="19" viewBox="0 0 25 19" fill="none" xmlns="http://www.w3.org/2000/svg">
<path d="M22.9167 0.125H2.08335C0.934326 0.125 0 1.05933 0 2.20835V16.7917C0 17.9407 0.934326 18.875 2.08335 18.875H22.9167C24.0657 18.875 25 17.9407 25 16.7917V2.20835C25 1.05933 24.0657 0.125 22.9167 0.125ZM2.08335 1.16665H22.9167C22.9935 1.16665 23.0611 1.19463 23.1331 1.21045C21.3294 2.86118 15.3488 8.33247 13.2559 10.2182C13.0921 10.3657 12.8281 10.5417 12.5 10.5417C12.172 10.5417 11.908 10.3657 11.7437 10.2177C9.65098 8.33228 3.66997 2.86069 1.8666 1.21055C1.93877 1.19473 2.00654 1.16665 2.08335 1.16665ZM1.04165 16.7917V2.20835C1.04165 2.1063 1.07241 2.01372 1.09995 1.92046C2.48042 3.18394 6.65347 7.00151 9.35933 9.46211C6.66226 11.7789 2.48813 15.7363 1.09668 17.0631C1.07212 16.9746 1.04165 16.8879 1.04165 16.7917ZM22.9167 17.8333H2.08335C2.00015 17.8333 1.92617 17.8043 1.84849 17.7858C3.28633 16.4151 7.48701 12.4349 10.1367 10.1682C10.4821 10.4815 10.7976 10.7672 11.0463 10.9913C11.4756 11.3789 11.9781 11.5833 12.5 11.5833C13.0219 11.5833 13.5244 11.3789 13.9531 10.9918C14.202 10.7676 14.5177 10.4816 14.8633 10.1682C17.5131 12.4347 21.7132 16.4146 23.1515 17.7858C23.0738 17.8043 23 17.8333 22.9167 17.8333ZM23.9583 16.7917C23.9583 16.8879 23.9279 16.9746 23.9034 17.0631C22.5114 15.7356 18.3377 11.7786 15.6407 9.46216C18.3467 7.00156 22.5191 3.18433 23.9 1.92036C23.9276 2.01362 23.9583 2.10625 23.9583 2.2083V16.7917Z" fill="#F2F2F2"/>
</svg>
