<svg width="12" height="21" viewBox="0 0 12 21" fill="none" xmlns="http://www.w3.org/2000/svg">
<path d="M1.16043 2.3209C1.80132 2.3209 2.32086 1.80137 2.32086 1.16047C2.32086 0.51958 1.80132 3.05176e-05 1.16043 3.05176e-05C0.519538 3.05176e-05 0 0.51958 0 1.16047C0 1.80137 0.519538 2.3209 1.16043 2.3209Z" fill="white"/>
<path d="M4.17296 2.32087C4.81385 2.32087 5.33338 1.80134 5.33338 1.16044C5.33338 0.519549 4.81385 0 4.17296 0C3.53207 0 3.01253 0.519549 3.01253 1.16044C3.01253 1.80134 3.53207 2.32087 4.17296 2.32087Z" fill="white"/>
<path d="M1.16043 5.33306C1.80132 5.33306 2.32086 4.81352 2.32086 4.17263C2.32086 3.53174 1.80132 3.01221 1.16043 3.01221C0.519538 3.01221 0 3.53174 0 4.17263C0 4.81352 0.519538 5.33306 1.16043 5.33306Z" fill="white"/>
<path d="M4.17296 5.33306C4.81385 5.33306 5.33338 4.81352 5.33338 4.17263C5.33338 3.53174 4.81385 3.01221 4.17296 3.01221C3.53207 3.01221 3.01253 3.53174 3.01253 4.17263C3.01253 4.81352 3.53207 5.33306 4.17296 5.33306Z" fill="white"/>
<path d="M7.16005 5.33306C7.80094 5.33306 8.32048 4.81352 8.32048 4.17263C8.32048 3.53174 7.80094 3.01221 7.16005 3.01221C6.51916 3.01221 5.99962 3.53174 5.99962 4.17263C5.99962 4.81352 6.51916 5.33306 7.16005 5.33306Z" fill="white"/>
<path d="M1.16043 8.34522C1.80132 8.34522 2.32086 7.82568 2.32086 7.18479C2.32086 6.5439 1.80132 6.02435 1.16043 6.02435C0.519538 6.02435 0 6.5439 0 7.18479C0 7.82568 0.519538 8.34522 1.16043 8.34522Z" fill="white"/>
<path d="M4.17296 8.34522C4.81385 8.34522 5.33338 7.82568 5.33338 7.18479C5.33338 6.5439 4.81385 6.02435 4.17296 6.02435C3.53207 6.02435 3.01253 6.5439 3.01253 7.18479C3.01253 7.82568 3.53207 8.34522 4.17296 8.34522Z" fill="white"/>
<path d="M7.16005 8.34522C7.80094 8.34522 8.32048 7.82568 8.32048 7.18479C8.32048 6.5439 7.80094 6.02435 7.16005 6.02435C6.51916 6.02435 5.99962 6.5439 5.99962 7.18479C5.99962 7.82568 6.51916 8.34522 7.16005 8.34522Z" fill="white"/>
<path d="M10.1726 8.34522C10.8135 8.34522 11.333 7.82568 11.333 7.18479C11.333 6.5439 10.8135 6.02435 10.1726 6.02435C9.53168 6.02435 9.01215 6.5439 9.01215 7.18479C9.01215 7.82568 9.53168 8.34522 10.1726 8.34522Z" fill="white"/>
<path d="M1.16043 14.3696C1.80132 14.3696 2.32086 13.85 2.32086 13.2091C2.32086 12.5682 1.80132 12.0487 1.16043 12.0487C0.519538 12.0487 0 12.5682 0 13.2091C0 13.85 0.519538 14.3696 1.16043 14.3696Z" fill="white"/>
<path d="M4.17296 14.3696C4.81385 14.3696 5.33338 13.85 5.33338 13.2091C5.33338 12.5682 4.81385 12.0487 4.17296 12.0487C3.53207 12.0487 3.01253 12.5682 3.01253 13.2091C3.01253 13.85 3.53207 14.3696 4.17296 14.3696Z" fill="white"/>
<path d="M7.16005 14.3696C7.80094 14.3696 8.32048 13.85 8.32048 13.2091C8.32048 12.5682 7.80094 12.0487 7.16005 12.0487C6.51916 12.0487 5.99962 12.5682 5.99962 13.2091C5.99962 13.85 6.51916 14.3696 7.16005 14.3696Z" fill="white"/>
<path d="M10.1726 14.3696C10.8135 14.3696 11.333 13.85 11.333 13.2091C11.333 12.5682 10.8135 12.0487 10.1726 12.0487C9.53168 12.0487 9.01215 12.5682 9.01215 13.2091C9.01215 13.85 9.53168 14.3696 10.1726 14.3696Z" fill="white"/>
<path d="M1.16043 17.3571C1.80132 17.3571 2.32086 16.8376 2.32086 16.1967C2.32086 15.5558 1.80132 15.0363 1.16043 15.0363C0.519538 15.0363 0 15.5558 0 16.1967C0 16.8376 0.519538 17.3571 1.16043 17.3571Z" fill="white"/>
<path d="M4.17296 17.3571C4.81385 17.3571 5.33338 16.8376 5.33338 16.1967C5.33338 15.5558 4.81385 15.0363 4.17296 15.0363C3.53207 15.0363 3.01253 15.5558 3.01253 16.1967C3.01253 16.8376 3.53207 17.3571 4.17296 17.3571Z" fill="white"/>
<path d="M7.16005 17.3571C7.80094 17.3571 8.32048 16.8376 8.32048 16.1967C8.32048 15.5558 7.80094 15.0363 7.16005 15.0363C6.51916 15.0363 5.99962 15.5558 5.99962 16.1967C5.99962 16.8376 6.51916 17.3571 7.16005 17.3571Z" fill="white"/>
<path d="M1.16043 20.3693C1.80132 20.3693 2.32086 19.8498 2.32086 19.2089C2.32086 18.568 1.80132 18.0485 1.16043 18.0485C0.519538 18.0485 0 18.568 0 19.2089C0 19.8498 0.519538 20.3693 1.16043 20.3693Z" fill="white"/>
<path d="M4.17296 20.3693C4.81385 20.3693 5.33338 19.8498 5.33338 19.2089C5.33338 18.568 4.81385 18.0485 4.17296 18.0485C3.53207 18.0485 3.01253 18.568 3.01253 19.2089C3.01253 19.8498 3.53207 20.3693 4.17296 20.3693Z" fill="white"/>
</svg>
