<svg aria-hidden="true" style="position: absolute; width: 0; height: 0; overflow: hidden;" version="1.1" xmlns="http://www.w3.org/2000/svg" xmlns:xlink="http://www.w3.org/1999/xlink">
<defs>
<symbol id="icon-hatdiploma" viewBox="0 0 48 32">
<path fill="#7cd0bb" style="fill: var(--color1, #7cd0bb)" d="M29.9 20.821v8.894c0.439-0.22 0.924-0.334 1.415-0.334s0.975 0.114 1.415 0.334v-8.894c-0.471-0.008-0.944-0.026-1.415-0.026s-0.941 0.018-1.415 0.026z"></path>
<path fill="#7cd0bb" style="fill: var(--color1, #7cd0bb)" d="M24.949 31.048c-0 0.121 0.031 0.239 0.089 0.345s0.143 0.194 0.246 0.258c0.103 0.063 0.22 0.1 0.34 0.105s0.24-0.020 0.348-0.074l2.512-1.258v-9.575c-1.178 0.039-2.358 0.095-3.537 0.175v10.025z"></path>
<path fill="#7cd0bb" style="fill: var(--color1, #7cd0bb)" d="M34.144 30.423l2.513 1.257c0.108 0.054 0.228 0.079 0.348 0.074s0.237-0.042 0.34-0.105c0.103-0.063 0.187-0.152 0.246-0.257s0.090-0.224 0.090-0.344v-10.025c-1.178-0.081-2.358-0.137-3.537-0.175v9.575z"></path>
<path fill="#7cd0bb" style="fill: var(--color1, #7cd0bb)" d="M24.949 8.535v11.070c4.239-0.286 8.493-0.286 12.732 0v-11.070c-4.239 0.287-8.493 0.287-12.732 0z"></path>
<path fill="#7cd0bb" style="fill: var(--color1, #7cd0bb)" d="M16.511 8.155c-1.47 3.8-1.472 8.011-0.007 11.813 0.055 0.154 0.163 0.284 0.303 0.368s0.306 0.117 0.468 0.092c2.081-0.312 4.173-0.543 6.261-0.716v-11.282c-2.091-0.173-4.18-0.404-6.261-0.717-0.159-0.024-0.321 0.007-0.459 0.087s-0.246 0.205-0.305 0.355z"></path>
<path fill="#7cd0bb" style="fill: var(--color1, #7cd0bb)" d="M46.099 8.095c-0.066-0.134-0.173-0.244-0.306-0.312s-0.284-0.094-0.432-0.071c-2.081 0.313-4.17 0.544-6.261 0.717v11.284c2.092 0.173 4.18 0.405 6.261 0.717 0.148 0.022 0.299-0.003 0.431-0.072s0.24-0.178 0.307-0.312c0.976-1.84 1.487-3.892 1.487-5.975s-0.511-4.135-1.487-5.975z"></path>
<path fill="#151a6a" style="fill: var(--color2, #151a6a)" d="M34.292 6.849l-14.971-6.509c-0.517-0.224-1.075-0.34-1.638-0.34s-1.121 0.116-1.638 0.34l-14.973 6.508c-0.319 0.139-0.59 0.368-0.78 0.659s-0.292 0.631-0.292 0.979 0.101 0.688 0.292 0.979c0.191 0.291 0.462 0.52 0.78 0.659l4.587 1.995v9.102c0 0.12 0.030 0.238 0.089 0.343s0.142 0.193 0.244 0.257c3.473 2.298 7.529 3.559 11.692 3.635 4.164-0.077 8.22-1.338 11.693-3.637 0.101-0.064 0.185-0.152 0.243-0.256s0.089-0.222 0.089-0.342v-9.102l4.586-1.993c0.319-0.139 0.59-0.369 0.78-0.66s0.291-0.631 0.291-0.979c-0-0.348-0.102-0.688-0.293-0.979s-0.462-0.52-0.781-0.659zM28.295 20.824c-7.135 4.328-14.085 4.328-21.221 0v-8.091l2.122 0.92v4.739c0 0.188 0.075 0.368 0.207 0.5s0.313 0.207 0.5 0.207 0.368-0.075 0.5-0.207c0.133-0.133 0.207-0.313 0.207-0.5v-4.12l5.435 2.363c0.517 0.225 1.075 0.341 1.638 0.341s1.121-0.116 1.638-0.341l8.972-3.902v8.091zM33.729 8.828l-14.973 6.508c-0.339 0.147-0.704 0.222-1.074 0.222s-0.735-0.076-1.074-0.222l-5.568-2.421 6.981-3.808c0.162-0.091 0.282-0.242 0.334-0.421s0.030-0.371-0.059-0.534c-0.089-0.163-0.239-0.285-0.417-0.339s-0.37-0.035-0.535 0.052c-8.268 4.521-7.786 4.222-7.922 4.347l-7.784-3.383c-0.066-0.029-0.123-0.077-0.162-0.137s-0.061-0.131-0.061-0.204c0-0.072 0.021-0.143 0.061-0.204s0.096-0.108 0.162-0.137l14.972-6.508c0.339-0.148 0.704-0.224 1.074-0.224s0.735 0.076 1.074 0.224l14.971 6.508c0.066 0.029 0.123 0.077 0.162 0.137s0.061 0.131 0.061 0.204-0.021 0.143-0.061 0.204c-0.040 0.061-0.096 0.108-0.162 0.137z"></path>
</symbol>
<symbol id="icon-headhat" viewBox="0 0 45 32">
<path fill="#00a87c" style="fill: var(--color3, #00a87c)" opacity="0.5" d="M44.696 15.2l-17.227-7.144c-0.088-0.037-0.182-0.056-0.277-0.056s-0.189 0.019-0.277 0.056l-17.334 7.402c-0.131 0.056-0.242 0.15-0.32 0.269s-0.119 0.26-0.119 0.403c0.001 0.143 0.043 0.283 0.123 0.402s0.192 0.212 0.323 0.266l17.227 7.144c0.088 0.037 0.182 0.056 0.277 0.056s0.189-0.019 0.277-0.056l17.334-7.402c0.131-0.056 0.242-0.15 0.321-0.27s0.12-0.26 0.119-0.404c-0.001-0.144-0.044-0.284-0.123-0.403s-0.192-0.212-0.324-0.266z"></path>
<path fill="#00a87c" style="fill: var(--color3, #00a87c)" opacity="0.5" d="M26.823 25.625l-11.966-4.872v6.241c0 0.102 0.022 0.203 0.065 0.296s0.105 0.176 0.182 0.243c3.338 2.88 7.614 4.467 12.039 4.467s8.701-1.586 12.039-4.467c0.078-0.067 0.14-0.15 0.182-0.243s0.064-0.194 0.064-0.296v-6.422l-12.049 5.050c-0.088 0.037-0.182 0.056-0.277 0.057s-0.19-0.017-0.278-0.053z"></path>
<path fill="#061058" style="fill: var(--color4, #061058)" d="M28.153 7.549h-2.742c-0.573-2.277-1.927-4.183-3.933-5.529-1.915-1.285-4.362-1.992-6.891-1.992-2.402 0-4.439 0.629-6.057 1.87-1.218 0.935-2.204 2.224-2.932 3.832-0.095 0.211-0.002 0.459 0.209 0.554s0.459 0.002 0.554-0.209c1.564-3.458 4.331-5.211 8.226-5.211 2.364 0 4.646 0.657 6.424 1.85 1.77 1.187 2.983 2.851 3.533 4.834h-0.406c-0.231 0-0.419 0.187-0.419 0.419v0.762h-1.505c-1.038-3.235-3.974-5.652-7.523-5.881-0.116-0.008-0.229 0.033-0.313 0.112s-0.132 0.19-0.132 0.305v1.182c-3.671 0.129-6.617 3.155-6.617 6.856 0 0.162 0.006 0.323 0.018 0.483h-2.796v-0.762c0-0.102-0.036-0.195-0.097-0.268 0.26-0.662 0.438-1.133 0.527-1.402 0.049-0.146 0.1-0.339 0.165-0.584 0.086-0.323 0.193-0.725 0.337-1.177 0.070-0.22-0.052-0.456-0.272-0.526s-0.456 0.051-0.526 0.272c-0.15 0.471-0.26 0.884-0.348 1.215-0.059 0.221-0.11 0.412-0.151 0.534-0.092 0.275-0.285 0.785-0.573 1.515h-3.495c-0.231 0-0.419 0.187-0.419 0.419v2.362c0 0.231 0.187 0.419 0.419 0.419h2.201c-0.354 0.862-0.687 1.665-0.921 2.227-0.138 0.332-0.101 0.71 0.098 1.009s0.534 0.478 0.895 0.478h1.317c0.192 0.992 0.765 3.845 1.212 5.026 0.42 1.108 1.412 1.753 2.869 1.867 0.61 0.048 1.177-0.008 1.547-0.064l0.683 3.852c0.035 0.2 0.209 0.346 0.412 0.346h11.406c0.122 0 0.238-0.053 0.318-0.146s0.115-0.216 0.096-0.336l-0.597-3.861c-0.035-0.228-0.249-0.385-0.478-0.35s-0.385 0.249-0.35 0.478l0.522 3.378h-10.566l-0.695-3.922c-0.020-0.114-0.086-0.214-0.183-0.278s-0.216-0.083-0.328-0.056c-0.031 0.008-3.137 0.74-3.873-1.204-0.508-1.341-1.231-5.186-1.238-5.225-0.037-0.198-0.21-0.342-0.411-0.342h-1.663c-0.115 0-0.177-0.074-0.198-0.106s-0.066-0.117-0.022-0.223c0.263-0.632 0.65-1.566 1.052-2.548h0.908c0.231 0 0.419-0.187 0.419-0.419v-0.762h2.907c0.341 1.739 1.348 3.3 2.835 4.328 0.19 0.131 0.451 0.084 0.582-0.106s0.084-0.451-0.106-0.582c-1.26-0.871-2.127-2.177-2.456-3.639h3.529c0.231 0 0.419-0.187 0.419-0.419s-0.187-0.419-0.419-0.419h-3.656c-0.013-0.16-0.020-0.321-0.020-0.483 0-3.24 2.571-5.89 5.78-6.019v5.729c0 0.146 0.076 0.282 0.201 0.358l5.147 3.134c-1.099 1.751-3.020 2.823-5.104 2.823-0.69 0-1.366-0.115-2.010-0.343-0.218-0.077-0.457 0.037-0.534 0.255s0.037 0.457 0.255 0.534c0.734 0.26 1.504 0.391 2.289 0.391 2.377 0 4.568-1.225 5.819-3.225l0.756 0.461c0.066 0.040 0.142 0.061 0.218 0.061 0.038 0 0.075-0.005 0.112-0.015 0.111-0.031 0.205-0.107 0.259-0.209 0.631-1.204 0.964-2.562 0.964-3.929 0-0.597-0.063-1.18-0.182-1.743h1.284v0.762c0 0.231 0.187 0.419 0.419 0.419h0.73c-0.162 3.086-1.551 6.544-4.134 10.287-0.061 0.088-0.085 0.196-0.069 0.302l0.205 1.328c0.032 0.207 0.21 0.355 0.413 0.355 0.021 0 0.043-0.002 0.064-0.005 0.228-0.035 0.385-0.249 0.35-0.478l-0.18-1.164c2.623-3.838 4.030-7.409 4.189-10.625h2.446c0.231 0 0.419-0.187 0.419-0.419v-2.361c0-0.232-0.187-0.419-0.419-0.419zM4.014 12.968h-0.773c-0.001 0-0.002 0-0.003 0h-2.4v-1.524h3.177v1.524zM21.108 14.447l-0.727-0.443c-0-0-0-0-0.001-0.001l-5.297-3.225v-7.053c2.905 0.359 5.292 2.351 6.248 5.003h-2.899c-0.231 0-0.419 0.187-0.419 0.419s0.187 0.419 0.419 0.419h3.147c0.132 0.561 0.202 1.145 0.202 1.743 0 1.081-0.232 2.157-0.673 3.138zM27.734 9.91h-3.177v-1.524h3.177v1.524z"></path>
<path fill="#061058" style="fill: var(--color4, #061058)" d="M26.73 8.728h-1.168c-0.231 0-0.419 0.187-0.419 0.419s0.187 0.419 0.419 0.419h1.168c0.231 0 0.419-0.187 0.419-0.419s-0.187-0.419-0.419-0.419z"></path>
<path fill="#061058" style="fill: var(--color4, #061058)" d="M3.010 11.787h-1.168c-0.231 0-0.419 0.187-0.419 0.419s0.187 0.419 0.419 0.419h1.168c0.231 0 0.419-0.187 0.419-0.419s-0.187-0.419-0.419-0.419z"></path>
</symbol>
<symbol id="icon-comppen" viewBox="0 0 42 32">
<path fill="#00a87c" style="fill: var(--color3, #00a87c)" opacity="0.5" d="M37.962 29.146c-2.703 0-2.815 1.196-5.18 1.196-2.336 0-2.498-1.196-5.182-1.196-2.7 0-2.815 1.196-5.184 1.196h-4.801c0.381-0.127 0.761-0.255 1.136-0.394 0.132-0.678 0.095-1.377-0.109-2.037s-0.567-1.259-1.058-1.744-1.095-0.841-1.757-1.037c-0.662-0.196-1.362-0.225-2.038-0.084-0.674 1.883-1.184 3.821-1.524 5.792-0.015 0.086-0.011 0.174 0.012 0.258s0.063 0.162 0.119 0.229c0.056 0.067 0.126 0.12 0.204 0.157s0.165 0.056 0.252 0.056h9.566c2.705 0 2.81-1.196 5.184-1.196 2.336 0 2.497 1.196 5.182 1.196 2.699 0 2.818-1.196 5.18-1.196 0.159 0 0.311-0.063 0.423-0.175s0.175-0.264 0.175-0.423c0-0.159-0.063-0.311-0.175-0.423s-0.264-0.175-0.423-0.175h-0.001z"></path>
<path fill="#00a87c" style="fill: var(--color3, #00a87c)" opacity="0.5" d="M41.536 13.735l-2.253-2.285 0.652-0.665c0.392-0.402 0.612-0.941 0.612-1.503s-0.22-1.101-0.612-1.503l-4.265-4.332c-0.399-0.389-0.935-0.606-1.492-0.606s-1.093 0.217-1.492 0.606l-2.018 2.049c0.195 0.089 0.372 0.212 0.523 0.363l6.397 6.496c0.137 0.139 0.25 0.298 0.335 0.473l0.52-0.528 2.24 2.272c0.173 0.178 0.27 0.416 0.27 0.663s-0.097 0.486-0.27 0.663l-8.53 8.666c-0.060 0.055-0.108 0.121-0.142 0.195s-0.052 0.154-0.053 0.235c-0.002 0.081 0.013 0.162 0.044 0.237s0.076 0.143 0.134 0.2 0.127 0.102 0.203 0.131c0.076 0.029 0.157 0.043 0.238 0.040s0.161-0.022 0.234-0.057c0.073-0.035 0.139-0.084 0.193-0.145l8.532-8.663c0.391-0.402 0.61-0.941 0.61-1.502s-0.219-1.1-0.611-1.501z"></path>
<path fill="#00a87c" style="fill: var(--color3, #00a87c)" opacity="0.5" d="M20.012 29.451c1.896-0.791 3.715-1.757 5.432-2.885 4.809-3.194 8.731-7.554 11.397-12.675 0.059-0.112 0.080-0.24 0.061-0.365s-0.077-0.241-0.165-0.331l-6.397-6.498c-0.091-0.092-0.209-0.152-0.337-0.172s-0.259 0.004-0.373 0.065c-6.983 3.746-12.423 9.832-15.365 17.19 0.762-0.055 1.528 0.053 2.245 0.317s1.37 0.679 1.914 1.216c0.544 0.537 0.967 1.184 1.241 1.897s0.392 1.477 0.347 2.24v0z"></path>
<path fill="#151a6a" style="fill: var(--color2, #151a6a)" d="M28.1 0h-26.306c-0.476 0-0.932 0.189-1.268 0.525s-0.525 0.793-0.525 1.268v16.74c0 0.476 0.189 0.932 0.525 1.268s0.793 0.525 1.268 0.525h10.056l-0.997 5.381h-0.689c-0.159 0-0.311 0.063-0.423 0.175s-0.175 0.264-0.175 0.423 0.063 0.311 0.175 0.423c0.112 0.112 0.264 0.175 0.423 0.175h9.566c0.159 0 0.311-0.063 0.423-0.175s0.175-0.264 0.175-0.423-0.063-0.311-0.175-0.423c-0.112-0.112-0.264-0.175-0.423-0.175h-0.689l-0.997-5.381h10.056c0.476 0 0.932-0.189 1.268-0.525s0.525-0.793 0.525-1.268v-16.74c0-0.476-0.189-0.932-0.525-1.268s-0.793-0.525-1.268-0.525zM17.828 25.708h-5.762l0.996-5.381h3.77l0.996 5.381zM28.698 18.534c0 0.159-0.063 0.311-0.175 0.423s-0.264 0.175-0.423 0.175h-26.306c-0.159 0-0.311-0.063-0.423-0.175s-0.175-0.264-0.175-0.423v-16.74c0-0.159 0.063-0.311 0.175-0.423s0.264-0.175 0.423-0.175h26.306c0.159 0 0.311 0.063 0.423 0.175s0.175 0.264 0.175 0.423v16.74z"></path>
<path fill="#151a6a" style="fill: var(--color2, #151a6a)" d="M25.708 2.391h-21.523c-0.476 0-0.932 0.189-1.268 0.525s-0.525 0.793-0.525 1.268v9.566c0 0.476 0.189 0.932 0.525 1.268s0.793 0.525 1.268 0.525h21.523c0.476 0 0.932-0.189 1.268-0.525s0.525-0.793 0.525-1.268v-9.566c0-0.476-0.189-0.932-0.525-1.268s-0.793-0.525-1.268-0.525zM26.306 13.751c0 0.159-0.063 0.311-0.175 0.423s-0.264 0.175-0.423 0.175h-21.523c-0.159 0-0.311-0.063-0.423-0.175s-0.175-0.264-0.175-0.423v-9.566c0-0.159 0.063-0.311 0.175-0.423s0.264-0.175 0.423-0.175h21.523c0.159 0 0.311 0.063 0.423 0.175s0.175 0.264 0.175 0.423v9.566z"></path>
<path fill="#151a6a" style="fill: var(--color2, #151a6a)" d="M16.142 16.74h-2.391c-0.159 0-0.311 0.063-0.423 0.175s-0.175 0.264-0.175 0.423c0 0.159 0.063 0.311 0.175 0.423s0.264 0.175 0.423 0.175h2.391c0.159 0 0.311-0.063 0.423-0.175s0.175-0.264 0.175-0.423c0-0.159-0.063-0.311-0.175-0.423s-0.264-0.175-0.423-0.175z"></path>
</symbol>
<symbol id="icon-check" viewBox="0 0 31 32">
<path fill="#00a87c" style="fill: var(--color3, #00a87c)" opacity="0.5" d="M15.59 0.137c-3.083 0-6.097 0.914-8.661 2.627s-4.562 4.148-5.742 6.996c-1.18 2.849-1.489 5.983-0.887 9.007s2.086 5.802 4.267 7.982c2.18 2.18 4.958 3.665 7.982 4.267s6.159 0.293 9.007-0.887c2.849-1.18 5.283-3.178 6.996-5.742s2.627-5.578 2.627-8.661c-0.005-4.133-1.648-8.096-4.571-11.019s-6.885-4.567-11.019-4.571zM22.733 13.499l-7.697 6.391c-0.204 0.168-0.455 0.269-0.718 0.287s-0.526-0.047-0.751-0.186l-4.98-3.096c-0.153-0.081-0.287-0.193-0.395-0.328s-0.186-0.291-0.231-0.458c-0.045-0.167-0.055-0.341-0.030-0.512s0.085-0.335 0.177-0.482 0.212-0.273 0.354-0.372c0.142-0.098 0.303-0.166 0.473-0.2s0.344-0.032 0.513 0.005 0.329 0.108 0.469 0.209l4.209 2.617 6.999-5.811c0.259-0.186 0.58-0.267 0.896-0.227s0.606 0.2 0.81 0.445c0.204 0.246 0.307 0.559 0.289 0.878s-0.157 0.619-0.387 0.84z"></path>
</symbol>
<symbol id="icon-man" viewBox="0 0 22 32">
<path fill="#151a6a" style="fill: var(--color2, #151a6a)" d="M16 18.56h-10.24c-1.527 0.002-2.991 0.609-4.071 1.689s-1.687 2.544-1.689 4.071v5.76c0 0.509 0.202 0.998 0.562 1.358s0.848 0.562 1.358 0.562h17.92c0.509 0 0.998-0.202 1.358-0.562s0.562-0.848 0.562-1.358v-5.76c-0.002-1.527-0.609-2.991-1.689-4.071s-2.544-1.687-4.071-1.689zM20.48 30.080c0 0.17-0.067 0.332-0.187 0.453s-0.283 0.187-0.453 0.187h-17.92c-0.17 0-0.333-0.067-0.453-0.187s-0.187-0.283-0.187-0.453v-5.76c0.001-1.188 0.474-2.326 1.314-3.166s1.979-1.312 3.166-1.314h10.24c1.188 0.001 2.326 0.474 3.166 1.314s1.312 1.979 1.314 3.166v5.76z"></path>
<path fill="#151a6a" style="fill: var(--color2, #151a6a)" d="M10.88 16.64c1.799-0.002 3.523-0.717 4.795-1.989s1.987-2.996 1.989-4.795v-3.072c0-1.799-0.715-3.525-1.987-4.797s-2.998-1.987-4.797-1.987c-1.799 0-3.525 0.715-4.797 1.987s-1.987 2.998-1.987 4.797v3.072c0.002 1.799 0.717 3.523 1.989 4.795s2.996 1.987 4.795 1.989zM5.376 6.784c0-1.46 0.58-2.86 1.612-3.892s2.432-1.612 3.892-1.612c1.46 0 2.86 0.58 3.892 1.612s1.612 2.432 1.612 3.892v3.072c0 1.46-0.58 2.86-1.612 3.892s-2.432 1.612-3.892 1.612c-1.46 0-2.86-0.58-3.892-1.612s-1.612-2.432-1.612-3.892v-3.072z"></path>
<path fill="#151a6a" style="fill: var(--color2, #151a6a)" d="M10.88 13.44c1.018-0.001 1.994-0.406 2.714-1.126s1.125-1.696 1.126-2.714c0-0.17-0.067-0.332-0.187-0.453s-0.283-0.187-0.453-0.187c-0.17 0-0.332 0.067-0.453 0.187s-0.187 0.283-0.187 0.453c0 0.679-0.27 1.33-0.75 1.81s-1.131 0.75-1.81 0.75-1.33-0.27-1.81-0.75c-0.48-0.48-0.75-1.131-0.75-1.81 0-0.17-0.067-0.332-0.187-0.453s-0.283-0.187-0.453-0.187c-0.17 0-0.333 0.067-0.453 0.187s-0.187 0.283-0.187 0.453c0.001 1.018 0.406 1.994 1.126 2.714s1.696 1.125 2.714 1.126z"></path>
</symbol>
</defs>
</svg>
