<svg aria-hidden="true" style="position: absolute; width: 0; height: 0; overflow: hidden;" version="1.1" xmlns="http://www.w3.org/2000/svg" xmlns:xlink="http://www.w3.org/1999/xlink">
<defs>
<symbol id="icon-feather" viewBox="0 0 32 32">
<path fill="#00a87c" style="fill: var(--color1, #00a87c)" opacity="0.5" d="M13.995 28.063c0.295 0.042 0.596 0.014 0.878-0.080s0.54-0.253 0.751-0.463l15.813-15.812c0.179-0.178 0.321-0.389 0.418-0.623s0.146-0.483 0.145-0.735v-8.429c0-0.509-0.202-0.998-0.562-1.358s-0.848-0.562-1.358-0.562h-8.415c-0.258 0.001-0.514 0.053-0.751 0.154s-0.452 0.249-0.632 0.434l-16.263 16.888c-0.068 0.071-0.119 0.157-0.149 0.251s-0.037 0.193-0.022 0.291l0.989 6.431 20.046-20.045c0.059-0.061 0.13-0.11 0.208-0.143s0.162-0.051 0.247-0.052c0.085-0.001 0.169 0.015 0.248 0.048s0.15 0.080 0.21 0.14 0.108 0.132 0.14 0.21c0.032 0.079 0.048 0.163 0.048 0.248s-0.018 0.169-0.052 0.247-0.082 0.149-0.143 0.208l-25.6 25.6c-0.089 0.089-0.15 0.203-0.175 0.328s-0.012 0.253 0.036 0.37c0.048 0.117 0.13 0.217 0.236 0.287s0.229 0.108 0.355 0.108h28.16c0.849 0 1.663-0.337 2.263-0.937s0.937-1.414 0.937-2.263-0.337-1.663-0.937-2.263c-0.6-0.6-1.414-0.937-2.263-0.937h-1.92c-0.509 0-0.998-0.202-1.358-0.562s-0.562-0.848-0.562-1.358c0-0.509 0.202-0.998 0.562-1.358s0.848-0.562 1.358-0.562h4.48c0.17 0 0.333-0.067 0.453-0.188s0.188-0.283 0.188-0.453-0.067-0.333-0.188-0.453c-0.12-0.12-0.283-0.188-0.453-0.188h-4.48c-0.849 0-1.663 0.337-2.263 0.937s-0.937 1.414-0.937 2.263 0.337 1.663 0.937 2.263c0.6 0.6 1.414 0.937 2.263 0.937h1.92c0.509 0 0.998 0.202 1.358 0.562s0.562 0.848 0.562 1.358c0 0.509-0.202 0.998-0.562 1.358s-0.848 0.562-1.358 0.562h-26.615l3.802-3.802 8.009 1.144z"></path>
</symbol>
<symbol id="icon-book2" viewBox="0 0 35 32">
<path fill="#151a6a" style="fill: var(--color2, #151a6a)" d="M33.664 2.1c-0.327-0.082-6.828-4.306-14.492-0.54l-1.648 0.81-1.648-0.811c-7.522-3.692-14.283 0.492-14.492 0.541-0.417 0.203-0.767 0.517-1.012 0.906s-0.373 0.837-0.372 1.295v24.972c0 0.348 0.085 0.69 0.246 0.999s0.395 0.577 0.682 0.78c0.287 0.203 0.619 0.337 0.968 0.389s0.707 0.023 1.042-0.087c7.629-2.5 13.367 0.425 14.322 0.603 0.171 0.056 0.356 0.056 0.527 0 1.137-0.212 6.592-3.137 14.322-0.603 0.336 0.11 0.693 0.139 1.042 0.087s0.681-0.186 0.968-0.389c0.287-0.203 0.521-0.471 0.682-0.78s0.245-0.652 0.246-0.999v-24.972c0.001-0.457-0.128-0.906-0.372-1.295s-0.595-0.703-1.011-0.906zM27.537 1.78v6.538l-1.206-0.791c-0.137-0.090-0.298-0.138-0.463-0.138s-0.326 0.048-0.463 0.138l-1.206 0.791v-6.538c1.109-0.134 2.23-0.134 3.338 0zM19.918 3.028c0.834-0.403 1.71-0.717 2.613-0.936v7.758c0 0.149 0.041 0.294 0.119 0.422s0.189 0.232 0.322 0.302 0.283 0.103 0.434 0.096c0.151-0.007 0.297-0.055 0.423-0.137l2.040-1.337 2.040 1.337c0.126 0.082 0.272 0.13 0.423 0.137s0.301-0.026 0.434-0.096c0.133-0.070 0.245-0.174 0.322-0.302s0.119-0.273 0.119-0.422v-7.758c1.295 0.339 2.541 0.835 3.711 1.477 0.139 0.068 0.255 0.173 0.336 0.302s0.125 0.278 0.125 0.431v21.638l-0.742-0.246c-4.655-1.48-9.679-1.393-14.279 0.246v-22.145l1.56-0.767zM1.669 4.301c0-0.152 0.043-0.302 0.125-0.431s0.198-0.234 0.337-0.302c0.345-0.087 6.143-3.91 12.999-0.54l1.56 0.767v22.145c-4.593-1.672-9.628-1.758-14.279-0.246l-0.742 0.246v-21.638zM32.637 29.798c-7.876-2.578-14.584 0.421-15.113 0.517-4.822-1.903-10.169-2.085-15.113-0.516-0.085 0.028-0.175 0.035-0.263 0.022s-0.172-0.047-0.245-0.098-0.131-0.119-0.172-0.197c-0.041-0.078-0.062-0.165-0.062-0.253v-1.604l1.269-0.416c7.628-2.5 13.357 0.423 14.322 0.603 0.17 0.056 0.354 0.056 0.524 0 1.136-0.212 6.592-3.137 14.322-0.603l1.273 0.416v1.604c0 0.088-0.021 0.174-0.062 0.253s-0.1 0.146-0.172 0.197-0.156 0.085-0.245 0.098c-0.088 0.013-0.179 0.005-0.263-0.023z"></path>
</symbol>
<symbol id="icon-border" viewBox="0 0 33 32">
<path fill="none" stroke="#00a87c" style="stroke: var(--color1, #00a87c)" stroke-linejoin="miter" stroke-linecap="butt" stroke-miterlimit="4" stroke-width="0.7345" d="M31.988 0.552l-0.086 14.742c-0.050 8.682-7.13 15.68-15.812 15.63l-0.489-0.003c-8.412-0.049-15.192-6.908-15.143-15.32s6.908-15.192 15.32-15.143l16.21 0.094z"></path>
</symbol>
<symbol id="icon-book" viewBox="0 0 21 32">
<path fill="#00a87c" style="fill: var(--color1, #00a87c)" opacity="0.5" d="M20.277 2.159c-3.069-1.42-6.45-2.159-9.877-2.159s-6.808 0.739-9.877 2.159c-0.158 0.073-0.291 0.187-0.383 0.327s-0.141 0.301-0.14 0.466v28.168c-0 0.15 0.041 0.298 0.119 0.429s0.192 0.241 0.329 0.32c0.137 0.079 0.294 0.124 0.455 0.131s0.321-0.025 0.465-0.092c2.806-1.299 5.898-1.975 9.032-1.975s6.226 0.676 9.032 1.975c0.144 0.067 0.304 0.099 0.465 0.092s0.317-0.052 0.455-0.131c0.137-0.079 0.25-0.189 0.329-0.32s0.12-0.279 0.12-0.429v-28.168c0.001-0.164-0.048-0.326-0.14-0.466s-0.225-0.253-0.383-0.327zM16.968 23.741c-0.079 0.221-0.25 0.404-0.474 0.509s-0.484 0.121-0.722 0.048c-3.49-1.075-7.258-1.075-10.748 0-0.118 0.037-0.242 0.051-0.366 0.043s-0.245-0.039-0.356-0.091-0.21-0.124-0.292-0.211c-0.081-0.088-0.143-0.189-0.183-0.299s-0.055-0.226-0.046-0.341c0.009-0.116 0.042-0.228 0.098-0.332s0.133-0.196 0.227-0.272c0.094-0.076 0.203-0.133 0.321-0.17 3.877-1.195 8.066-1.195 11.943 0 0.119 0.036 0.229 0.094 0.323 0.17s0.172 0.169 0.228 0.273c0.056 0.104 0.089 0.218 0.097 0.334s-0.008 0.233-0.048 0.343l-0.002-0.004zM16.968 16.699c-0.079 0.221-0.25 0.404-0.474 0.509s-0.484 0.121-0.722 0.048c-3.49-1.075-7.258-1.075-10.748 0-0.118 0.037-0.242 0.051-0.366 0.043s-0.245-0.039-0.356-0.091c-0.111-0.052-0.21-0.124-0.292-0.211s-0.143-0.189-0.183-0.299c-0.039-0.11-0.055-0.226-0.046-0.341s0.042-0.228 0.098-0.332c0.056-0.103 0.133-0.196 0.227-0.271s0.203-0.134 0.321-0.17c3.877-1.195 8.066-1.195 11.943 0 0.119 0.036 0.229 0.094 0.323 0.17s0.172 0.169 0.228 0.273c0.056 0.104 0.089 0.218 0.097 0.334s-0.008 0.233-0.048 0.343l-0.002-0.004zM16.968 9.657c-0.079 0.221-0.25 0.404-0.474 0.509s-0.484 0.121-0.722 0.048c-3.49-1.075-7.258-1.075-10.748 0-0.118 0.037-0.242 0.051-0.366 0.043s-0.245-0.039-0.356-0.091c-0.111-0.052-0.21-0.124-0.292-0.211s-0.143-0.189-0.183-0.299c-0.039-0.11-0.055-0.226-0.046-0.341s0.042-0.228 0.098-0.332c0.056-0.103 0.133-0.196 0.227-0.271s0.203-0.134 0.321-0.17c3.877-1.195 8.066-1.195 11.943 0 0.119 0.036 0.229 0.094 0.323 0.17s0.172 0.169 0.228 0.273c0.056 0.104 0.089 0.218 0.097 0.334s-0.008 0.233-0.048 0.343l-0.002-0.004z"></path>
</symbol>
<symbol id="icon-house" viewBox="0 0 39 32">
<path fill="#061058" style="fill: var(--color3, #061058)" d="M37.29 29.979h-2.193v-16.817h1.462c0.131 0 0.259-0.035 0.371-0.101s0.205-0.161 0.268-0.276c0.063-0.114 0.095-0.243 0.091-0.374s-0.042-0.258-0.111-0.368l-3.226-5.162c-0.196-0.316-0.47-0.577-0.796-0.758s-0.692-0.275-1.064-0.273h-12.351v-1.462h5.118c0.194 0 0.38-0.077 0.517-0.214s0.214-0.323 0.214-0.517v-2.925c0-0.194-0.077-0.38-0.214-0.517s-0.323-0.214-0.517-0.214h-5.849c-0.194 0-0.38 0.077-0.517 0.214s-0.214 0.323-0.214 0.517v5.118h-12.351c-0.372-0.001-0.739 0.093-1.064 0.273s-0.6 0.441-0.796 0.758l-3.226 5.162c-0.069 0.111-0.107 0.238-0.111 0.368s0.028 0.259 0.091 0.374c0.063 0.114 0.156 0.209 0.268 0.276s0.241 0.101 0.371 0.101h1.462v16.817h-2.194c-0.194 0-0.38 0.077-0.517 0.214s-0.214 0.323-0.214 0.517c0 0.194 0.077 0.38 0.214 0.517s0.323 0.214 0.517 0.214h36.559c0.194 0 0.38-0.077 0.517-0.214s0.214-0.323 0.214-0.517c0-0.194-0.077-0.38-0.214-0.517s-0.323-0.214-0.517-0.214zM32.712 7.655l2.531 4.043h-7.952l-6.032-4.387h10.834c0.124-0 0.246 0.031 0.354 0.091s0.2 0.147 0.265 0.253zM19.742 1.462h4.387v1.462h-4.387v-1.462zM5.309 7.655c0.065-0.105 0.156-0.192 0.265-0.253s0.23-0.092 0.354-0.091h10.834l-6.032 4.387h-7.952l2.531-4.043zM4.387 13.161h5.849v16.817h-5.849v-16.817zM11.699 12.802l7.312-5.318 7.312 5.318v17.176h-2.925v-5.118c0-0.582-0.231-1.14-0.643-1.551s-0.969-0.643-1.551-0.643h-4.387c-0.582 0-1.14 0.231-1.551 0.643s-0.643 0.969-0.643 1.551v5.118h-2.925v-17.176zM16.086 24.86c0-0.194 0.077-0.38 0.214-0.517s0.323-0.214 0.517-0.214h1.462v5.849h-2.194v-5.118zM19.742 29.979v-5.849h1.462c0.194 0 0.38 0.077 0.517 0.214s0.214 0.323 0.214 0.517v5.118h-2.194zM27.785 29.979v-16.817h5.849v16.817h-5.849z"></path>
<path fill="#061058" style="fill: var(--color3, #061058)" d="M19.011 16.086c0.578 0 1.144-0.171 1.625-0.493s0.856-0.778 1.077-1.313 0.279-1.122 0.166-1.69c-0.113-0.567-0.391-1.088-0.8-1.498s-0.93-0.688-1.498-0.8-1.155-0.055-1.69 0.166c-0.535 0.221-0.991 0.596-1.313 1.077s-0.493 1.046-0.493 1.625c0 0.776 0.308 1.52 0.857 2.068s1.292 0.857 2.068 0.857zM19.011 11.699c0.289 0 0.572 0.086 0.812 0.246s0.428 0.389 0.539 0.656 0.14 0.561 0.083 0.845c-0.056 0.284-0.196 0.544-0.4 0.749s-0.465 0.344-0.749 0.4c-0.284 0.056-0.578 0.027-0.845-0.083s-0.496-0.298-0.656-0.539c-0.161-0.24-0.247-0.523-0.247-0.812 0-0.388 0.154-0.76 0.428-1.034s0.646-0.428 1.034-0.428z"></path>
<path fill="#061058" style="fill: var(--color3, #061058)" d="M14.624 19.742h1.462c0.194 0 0.38-0.077 0.517-0.214s0.214-0.323 0.214-0.517c0-0.194-0.077-0.38-0.214-0.517s-0.323-0.214-0.517-0.214h-1.462c-0.194 0-0.38 0.077-0.517 0.214s-0.214 0.323-0.214 0.517c0 0.194 0.077 0.38 0.214 0.517s0.323 0.214 0.517 0.214z"></path>
<path fill="#061058" style="fill: var(--color3, #061058)" d="M8.043 15.355h-1.462c-0.194 0-0.38 0.077-0.517 0.214s-0.214 0.323-0.214 0.517c0 0.194 0.077 0.38 0.214 0.517s0.323 0.214 0.517 0.214h1.462c0.194 0 0.38-0.077 0.517-0.214s0.214-0.323 0.214-0.517c0-0.194-0.077-0.38-0.214-0.517s-0.323-0.214-0.517-0.214z"></path>
<path fill="#061058" style="fill: var(--color3, #061058)" d="M8.043 20.473h-1.462c-0.194 0-0.38 0.077-0.517 0.214s-0.214 0.323-0.214 0.517c0 0.194 0.077 0.38 0.214 0.517s0.323 0.214 0.517 0.214h1.462c0.194 0 0.38-0.077 0.517-0.214s0.214-0.323 0.214-0.517c0-0.194-0.077-0.38-0.214-0.517s-0.323-0.214-0.517-0.214z"></path>
<path fill="#061058" style="fill: var(--color3, #061058)" d="M8.043 25.591h-1.462c-0.194 0-0.38 0.077-0.517 0.214s-0.214 0.323-0.214 0.517c0 0.194 0.077 0.38 0.214 0.517s0.323 0.214 0.517 0.214h1.462c0.194 0 0.38-0.077 0.517-0.214s0.214-0.323 0.214-0.517c0-0.194-0.077-0.38-0.214-0.517s-0.323-0.214-0.517-0.214z"></path>
<path fill="#061058" style="fill: var(--color3, #061058)" d="M31.441 15.355h-1.462c-0.194 0-0.38 0.077-0.517 0.214s-0.214 0.323-0.214 0.517c0 0.194 0.077 0.38 0.214 0.517s0.323 0.214 0.517 0.214h1.462c0.194 0 0.38-0.077 0.517-0.214s0.214-0.323 0.214-0.517c0-0.194-0.077-0.38-0.214-0.517s-0.323-0.214-0.517-0.214z"></path>
<path fill="#061058" style="fill: var(--color3, #061058)" d="M31.441 20.473h-1.462c-0.194 0-0.38 0.077-0.517 0.214s-0.214 0.323-0.214 0.517c0 0.194 0.077 0.38 0.214 0.517s0.323 0.214 0.517 0.214h1.462c0.194 0 0.38-0.077 0.517-0.214s0.214-0.323 0.214-0.517c0-0.194-0.077-0.38-0.214-0.517s-0.323-0.214-0.517-0.214z"></path>
<path fill="#061058" style="fill: var(--color3, #061058)" d="M31.441 25.591h-1.462c-0.194 0-0.38 0.077-0.517 0.214s-0.214 0.323-0.214 0.517c0 0.194 0.077 0.38 0.214 0.517s0.323 0.214 0.517 0.214h1.462c0.194 0 0.38-0.077 0.517-0.214s0.214-0.323 0.214-0.517c0-0.194-0.077-0.38-0.214-0.517s-0.323-0.214-0.517-0.214z"></path>
<path fill="#061058" style="fill: var(--color3, #061058)" d="M21.204 19.011c0 0.194 0.077 0.38 0.214 0.517s0.323 0.214 0.517 0.214h1.462c0.194 0 0.38-0.077 0.517-0.214s0.214-0.323 0.214-0.517c0-0.194-0.077-0.38-0.214-0.517s-0.323-0.214-0.517-0.214h-1.462c-0.194 0-0.38 0.077-0.517 0.214s-0.214 0.323-0.214 0.517z"></path>
</symbol>
</defs>
</svg>
